<svg id="Capa_2" data-name="Capa 2" xmlns="http://www.w3.org/2000/svg" viewBox="0 0 721.16 426"><defs><style>.cls-1{fill:#13337e;}</style></defs><g id="Capa_1" data-name="Capa 1"><g id="JBNbZa"><path class="cls-1" d="M508.12,139.42c-26.51,13-52.93,25.12-78.51,38.89-31.91,17.21-61.31,38.05-85.77,65.12-17.77,19.72-31.36,41.86-35.36,68.65-5.11,33.59,6.7,62.52,26,88.85,33,44.83,78.05,73.77,128,95.81,60,26.52,123.26,41.59,187.73,51.63,33.21,5.12,66.61,8.94,98,13-79.45,5.12-160.75,6-242.06-1-76.66-6.61-152.1-19.26-225-44.57-49.86-17.3-96.09-41.21-133.77-79-23.63-23.63-38.14-51.63-35.07-86.23,2.6-28.47,16.28-52.1,34.14-73.59,31.16-37.68,71.35-62.51,116-80.93C322.72,171.33,385.79,157,450,147.14,469.24,144.26,488.59,142,508.12,139.42Z" transform="translate(-27.07 -139.42)"/><path class="cls-1" d="M548,505.12c-68.37-16.75-132.38-42.05-182.43-94-20-20.75-32.28-45-32.93-74.42-.65-27.35,11.91-48.57,32-65.4,35.73-30,78.8-43.26,126-53.68-13.95,10.7-25.95,19.35-37.21,28.84-18.14,15.16-33.95,32.46-45.77,53.12-22.7,39.63-20.28,77.77,7.26,114,23.72,31.35,55.91,52.37,89.86,70.7C518.64,492,533.52,498.23,548,505.12Z" transform="translate(-27.07 -139.42)"/><path class="cls-1" d="M267.37,526.14c-29.4-5.39-59.08-9.77-88.19-16.37-35.91-8.19-70.43-20.65-101.31-41.59-17.77-12.09-32.47-27-42.33-46.42C22.05,395.16,25,370,42,346c17.67-25.12,43.16-39.07,71.17-49.49-4.56,15-10.42,29.39-13.21,44.46-10.24,56.29,11.72,99.55,56.56,132.48C187.55,496.37,223,510,259.74,520.56c2.79.84,5.49,1.58,8.28,2.42Z" transform="translate(-27.07 -139.42)"/></g></g></svg>