<svg id="e50ce29e-85e3-4c82-8ec4-171a5eb14d4f" data-name="Capa 1" xmlns="http://www.w3.org/2000/svg" viewBox="0 0 291.39 42.48"><defs><style>.fc7f99e7-e662-4ed3-8b63-8920552bc8b7{fill:#10160e;}.fb5879bd-3cec-47e3-885a-02de2f2afc2a{fill:#003777;}.ee395e8a-25c7-4193-b84c-b180d6c50a2b{fill:#fff;}</style></defs><rect class="fc7f99e7-e662-4ed3-8b63-8920552bc8b7" x="59.22" width="0.85" height="42.48"/><path class="fb5879bd-3cec-47e3-885a-02de2f2afc2a" d="M59.26,58.22c-19.84-1.61-28-6.84-31.74-11.33-10.79-12.8,13-21,13-21S22.77,27.21,14.86,34C13.41,35.28,3.59,43.55,16,51.49c0,0,9.93,7.91,37.53,7Z" transform="translate(-3.34 -25.81)"/><path class="fb5879bd-3cec-47e3-885a-02de2f2afc2a" d="M44,54.29c-13.3-3.07-16.43-9.67-16.43-9.67C22.49,34.4,39,31.86,39,31.86S20.51,42.34,40.4,52.69Z" transform="translate(-3.34 -25.81)"/><path class="fb5879bd-3cec-47e3-885a-02de2f2afc2a" d="M10.17,37.84S2.51,50.63,22.77,55.52c0,0-18.23-.87-19.42-10.18,0,0-.58-4.89,6.82-7.5" transform="translate(-3.34 -25.81)"/><polygon class="ee395e8a-25c7-4193-b84c-b180d6c50a2b" points="6.44 35.61 11.59 35.61 8.6 42.39 3.48 42.39 6.44 35.61"/><polygon class="ee395e8a-25c7-4193-b84c-b180d6c50a2b" points="18.46 35.61 13.31 35.61 10.35 42.39 14.58 42.39 16.45 38.51 17.77 42.39 22.89 42.39 25.92 35.61 21.61 35.61 19.71 39.8 18.46 35.61"/><polygon class="ee395e8a-25c7-4193-b84c-b180d6c50a2b" points="32.05 37.61 38.61 37.61 39.47 35.7 39.47 35.61 28.48 35.61 25.52 42.39 30.64 42.39 36.45 42.39 37.12 40.9 30.55 40.9 31 39.92 37.56 39.92 38.17 38.59 31.6 38.59 32.05 37.61"/><path class="ee395e8a-25c7-4193-b84c-b180d6c50a2b" d="M48,61.39,41.34,68.2h4.8l1-1h4.08l0,1h4.59V61.43Zm.48,4.22L51,62.93h.12l.07,2.68Z" transform="translate(-3.34 -25.81)"/><path d="M68.86,43.15V30.27h1.76V43.15Z" transform="translate(-3.34 -25.81)"/><path d="M73.5,43.15V33.82H75v1.32A3.47,3.47,0,0,1,78,33.61a4.09,4.09,0,0,1,1.59.3,2.51,2.51,0,0,1,1.09.79,3.11,3.11,0,0,1,.51,1.17,9,9,0,0,1,.09,1.54v5.74H79.66V37.47A4.05,4.05,0,0,0,79.47,36a1.51,1.51,0,0,0-.67-.77A2.18,2.18,0,0,0,77.67,35a2.66,2.66,0,0,0-1.79.64,3.08,3.08,0,0,0-.76,2.43v5.1Z" transform="translate(-3.34 -25.81)"/><path d="M83.13,40.36l1.61-.24a2.15,2.15,0,0,0,.75,1.44,2.7,2.7,0,0,0,1.73.5,2.61,2.61,0,0,0,1.66-.44,1.33,1.33,0,0,0,.54-1,1,1,0,0,0-.48-.85,6.82,6.82,0,0,0-1.66-.53,15.38,15.38,0,0,1-2.48-.77,2.27,2.27,0,0,1-1-.88,2.31,2.31,0,0,1-.36-1.26,2.39,2.39,0,0,1,.29-1.15,2.6,2.6,0,0,1,.8-.88,3.37,3.37,0,0,1,1-.47,5.21,5.21,0,0,1,1.4-.18,5.72,5.72,0,0,1,2,.31,2.69,2.69,0,0,1,1.26.86,3.27,3.27,0,0,1,.56,1.44l-1.59.22a1.65,1.65,0,0,0-.63-1.13,2.31,2.31,0,0,0-1.46-.4,2.72,2.72,0,0,0-1.6.36,1,1,0,0,0-.48.84.85.85,0,0,0,.2.55,1.51,1.51,0,0,0,.62.43c.17,0,.64.19,1.44.4a20.39,20.39,0,0,1,2.4.73,2.37,2.37,0,0,1,1.07.83,2.3,2.3,0,0,1,.39,1.36,2.65,2.65,0,0,1-.47,1.49A3.13,3.13,0,0,1,89.25,43a5.19,5.19,0,0,1-2,.38,4.61,4.61,0,0,1-2.85-.75A3.54,3.54,0,0,1,83.13,40.36Z" transform="translate(-3.34 -25.81)"/><path d="M96.57,41.74l.24,1.39a5.79,5.79,0,0,1-1.23.14A2.84,2.84,0,0,1,94.21,43a1.5,1.5,0,0,1-.69-.72,5.49,5.49,0,0,1-.2-1.86V35.05H92.13V33.82h1.19V31.5l1.62-.94v3.26h1.63v1.23H94.94V40.5a2.9,2.9,0,0,0,.08.87.65.65,0,0,0,.28.31,1.08,1.08,0,0,0,.56.12A5.46,5.46,0,0,0,96.57,41.74Z" transform="translate(-3.34 -25.81)"/><path d="M98.17,32.08V30.27H99.8v1.81Zm0,11.07V33.82H99.8v9.33Z" transform="translate(-3.34 -25.81)"/><path d="M105.82,41.74l.23,1.39a5.79,5.79,0,0,1-1.23.14,2.87,2.87,0,0,1-1.37-.27,1.52,1.52,0,0,1-.68-.72,5.24,5.24,0,0,1-.2-1.86V35.05h-1.19V33.82h1.19V31.5l1.61-.94v3.26h1.64v1.23h-1.64V40.5a2.5,2.5,0,0,0,.09.87.65.65,0,0,0,.28.31,1,1,0,0,0,.55.12A5.73,5.73,0,0,0,105.82,41.74Z" transform="translate(-3.34 -25.81)"/><path d="M113.69,43.15V41.78a3.55,3.55,0,0,1-3,1.58,3.83,3.83,0,0,1-1.59-.32,2.59,2.59,0,0,1-1.09-.79,3,3,0,0,1-.5-1.17,7.56,7.56,0,0,1-.1-1.48V33.82H109V39a9.48,9.48,0,0,0,.1,1.67,1.65,1.65,0,0,0,.65,1A2.06,2.06,0,0,0,111,42a2.63,2.63,0,0,0,1.37-.37,2,2,0,0,0,.91-1,4.81,4.81,0,0,0,.27-1.82v-5h1.62v9.33Z" transform="translate(-3.34 -25.81)"/><path d="M121.24,41.74l.23,1.39a5.79,5.79,0,0,1-1.23.14,2.87,2.87,0,0,1-1.37-.27,1.52,1.52,0,0,1-.68-.72,5.24,5.24,0,0,1-.2-1.86V35.05H116.8V33.82H118V31.5l1.61-.94v3.26h1.64v1.23H119.6V40.5a2.5,2.5,0,0,0,.09.87.65.65,0,0,0,.28.31,1,1,0,0,0,.55.12A5.73,5.73,0,0,0,121.24,41.74Z" transform="translate(-3.34 -25.81)"/><path d="M122.22,38.48a4.73,4.73,0,0,1,1.48-3.84,4.55,4.55,0,0,1,3-1A4.38,4.38,0,0,1,130,34.87a4.7,4.7,0,0,1,1.25,3.48,6.07,6.07,0,0,1-.55,2.84,3.9,3.9,0,0,1-1.62,1.6,4.79,4.79,0,0,1-2.31.57,4.37,4.37,0,0,1-3.26-1.26A4.91,4.91,0,0,1,122.22,38.48Zm1.67,0a4,4,0,0,0,.8,2.69,2.63,2.63,0,0,0,2,.89,2.6,2.6,0,0,0,2-.9,3.94,3.94,0,0,0,.8-2.73,3.82,3.82,0,0,0-.8-2.62,2.6,2.6,0,0,0-2-.9,2.63,2.63,0,0,0-2,.89A3.92,3.92,0,0,0,123.89,38.48Z" transform="translate(-3.34 -25.81)"/><path d="M138.43,43.15V30.27h1.8l7,10.11V30.27h1.68V43.15h-1.79l-7-10.12V43.15Z" transform="translate(-3.34 -25.81)"/><path d="M157.85,42a5.93,5.93,0,0,1-1.73,1,5.08,5.08,0,0,1-1.8.31,3.52,3.52,0,0,1-2.42-.75,2.43,2.43,0,0,1-.85-1.92,2.4,2.4,0,0,1,.32-1.25,2.54,2.54,0,0,1,.84-.91,3.9,3.9,0,0,1,1.17-.52,13.16,13.16,0,0,1,1.44-.24,15.24,15.24,0,0,0,2.9-.54c0-.22,0-.36,0-.42a1.74,1.74,0,0,0-.46-1.36,2.76,2.76,0,0,0-1.85-.54,3,3,0,0,0-1.7.4,2.36,2.36,0,0,0-.8,1.38l-1.59-.21a3.69,3.69,0,0,1,.71-1.6,3.11,3.11,0,0,1,1.44-1,6.79,6.79,0,0,1,2.17-.32,5.9,5.9,0,0,1,2,.28,2.67,2.67,0,0,1,1.13.7,2.57,2.57,0,0,1,.5,1.08,8.15,8.15,0,0,1,.08,1.46v2.11a21.19,21.19,0,0,0,.11,2.79,3.16,3.16,0,0,0,.41,1.12h-1.7A3.3,3.3,0,0,1,157.85,42Zm-.13-3.53a12.36,12.36,0,0,1-2.66.59,6.36,6.36,0,0,0-1.41.32,1.43,1.43,0,0,0-.64.51,1.36,1.36,0,0,0-.23.76,1.32,1.32,0,0,0,.49,1.05,2.17,2.17,0,0,0,1.44.42,3.36,3.36,0,0,0,1.67-.4,2.47,2.47,0,0,0,1.08-1.09,3.83,3.83,0,0,0,.26-1.58Z" transform="translate(-3.34 -25.81)"/><path d="M168.14,39.73l1.6.2a4,4,0,0,1-1.35,2.52,3.92,3.92,0,0,1-2.64.91,4.19,4.19,0,0,1-3.17-1.25,5,5,0,0,1-1.2-3.59,6.42,6.42,0,0,1,.52-2.65,3.51,3.51,0,0,1,1.57-1.7,4.69,4.69,0,0,1,2.28-.56,4.06,4.06,0,0,1,2.56.76,3.53,3.53,0,0,1,1.27,2.19L168,36.8a2.51,2.51,0,0,0-.8-1.42,2.06,2.06,0,0,0-1.38-.47,2.56,2.56,0,0,0-2,.85,4,4,0,0,0-.77,2.71,4.1,4.1,0,0,0,.75,2.74,2.41,2.41,0,0,0,1.93.85,2.3,2.3,0,0,0,1.59-.57A2.83,2.83,0,0,0,168.14,39.73Z" transform="translate(-3.34 -25.81)"/><path d="M171.13,32.08V30.27h1.63v1.81Zm0,11.07V33.82h1.63v9.33Z" transform="translate(-3.34 -25.81)"/><path d="M174.63,38.48a4.73,4.73,0,0,1,1.48-3.84,4.53,4.53,0,0,1,3-1,4.39,4.39,0,0,1,3.24,1.26,4.74,4.74,0,0,1,1.25,3.48,6.07,6.07,0,0,1-.55,2.84,3.9,3.9,0,0,1-1.62,1.6,4.83,4.83,0,0,1-2.32.57,4.36,4.36,0,0,1-3.25-1.26A4.91,4.91,0,0,1,174.63,38.48Zm1.67,0a4,4,0,0,0,.8,2.69,2.73,2.73,0,0,0,4,0,4,4,0,0,0,.8-2.73,3.77,3.77,0,0,0-.81-2.62,2.58,2.58,0,0,0-2-.9,2.63,2.63,0,0,0-2,.89A3.92,3.92,0,0,0,176.3,38.48Z" transform="translate(-3.34 -25.81)"/><path d="M185.52,43.15V33.82H187v1.32A3.47,3.47,0,0,1,190,33.61a4.09,4.09,0,0,1,1.59.3,2.51,2.51,0,0,1,1.09.79,3.11,3.11,0,0,1,.51,1.17,9,9,0,0,1,.09,1.54v5.74h-1.63V37.47a4.05,4.05,0,0,0-.19-1.44,1.51,1.51,0,0,0-.67-.77,2.18,2.18,0,0,0-1.13-.28,2.66,2.66,0,0,0-1.79.64,3.08,3.08,0,0,0-.76,2.43v5.1Z" transform="translate(-3.34 -25.81)"/><path d="M202.06,42a6.1,6.1,0,0,1-1.74,1,5.07,5.07,0,0,1-1.79.31,3.53,3.53,0,0,1-2.43-.75,2.43,2.43,0,0,1-.85-1.92,2.5,2.5,0,0,1,.32-1.25,2.54,2.54,0,0,1,.84-.91,3.9,3.9,0,0,1,1.17-.52,13.16,13.16,0,0,1,1.44-.24,15.24,15.24,0,0,0,2.9-.54c0-.22,0-.36,0-.42a1.7,1.7,0,0,0-.46-1.36,2.76,2.76,0,0,0-1.85-.54,2.9,2.9,0,0,0-1.69.4,2.32,2.32,0,0,0-.81,1.38l-1.59-.21a3.69,3.69,0,0,1,.71-1.6,3.11,3.11,0,0,1,1.44-1,6.79,6.79,0,0,1,2.17-.32,5.86,5.86,0,0,1,2,.28,2.61,2.61,0,0,1,1.13.7,2.45,2.45,0,0,1,.5,1.08,8.15,8.15,0,0,1,.08,1.46v2.11a21.19,21.19,0,0,0,.11,2.79,3.37,3.37,0,0,0,.41,1.12h-1.7A3.09,3.09,0,0,1,202.06,42Zm-.14-3.53a12.24,12.24,0,0,1-2.65.59,6.48,6.48,0,0,0-1.42.32,1.43,1.43,0,0,0-.64.51,1.37,1.37,0,0,0,.26,1.81,2.17,2.17,0,0,0,1.44.42,3.36,3.36,0,0,0,1.67-.4,2.47,2.47,0,0,0,1.08-1.09,3.83,3.83,0,0,0,.26-1.58Z" transform="translate(-3.34 -25.81)"/><path d="M206.05,43.15V30.27h1.62V43.15Z" transform="translate(-3.34 -25.81)"/><path d="M74.58,61.15V60a3,3,0,0,1-2.68,1.39,3.82,3.82,0,0,1-2.11-.61A4.11,4.11,0,0,1,68.3,59a5.85,5.85,0,0,1-.53-2.54A6.45,6.45,0,0,1,68.25,54a3.73,3.73,0,0,1,1.44-1.75,3.92,3.92,0,0,1,2.14-.6,3.19,3.19,0,0,1,2.64,1.28V48.27h1.62V61.15Zm-5.14-4.66a4,4,0,0,0,.78,2.68,2.38,2.38,0,0,0,1.83.89,2.3,2.3,0,0,0,1.81-.85,3.81,3.81,0,0,0,.75-2.59,4.35,4.35,0,0,0-.76-2.81,2.36,2.36,0,0,0-1.87-.9,2.26,2.26,0,0,0-1.81.87A4.18,4.18,0,0,0,69.44,56.49Z" transform="translate(-3.34 -25.81)"/><path d="M85.21,58.14l1.67.21a4,4,0,0,1-1.47,2.22,5.1,5.1,0,0,1-6.08-.47,4.85,4.85,0,0,1-1.23-3.54,5,5,0,0,1,1.25-3.65,4.25,4.25,0,0,1,3.23-1.3,4.14,4.14,0,0,1,3.14,1.27,5,5,0,0,1,1.22,3.59c0,.09,0,.23,0,.42H79.78a3.54,3.54,0,0,0,.89,2.35,2.7,2.7,0,0,0,2,.82,2.49,2.49,0,0,0,1.52-.46A3,3,0,0,0,85.21,58.14Zm-5.34-2.55h5.35a3.06,3.06,0,0,0-.61-1.77,2.52,2.52,0,0,0-2-.91,2.62,2.62,0,0,0-1.89.73A2.84,2.84,0,0,0,79.87,55.59Z" transform="translate(-3.34 -25.81)"/><path d="M94,61.15V48.27h1.62V61.15Z" transform="translate(-3.34 -25.81)"/><path d="M97.57,56.48a4.73,4.73,0,0,1,1.48-3.84,4.53,4.53,0,0,1,3-1,4.35,4.35,0,0,1,3.23,1.26,4.7,4.7,0,0,1,1.26,3.48,6.06,6.06,0,0,1-.56,2.84,3.94,3.94,0,0,1-1.61,1.6,4.83,4.83,0,0,1-2.32.57,4.35,4.35,0,0,1-3.25-1.26A4.91,4.91,0,0,1,97.57,56.48Zm1.67,0a3.9,3.9,0,0,0,.8,2.69,2.61,2.61,0,0,0,2,.89,2.57,2.57,0,0,0,2-.9,3.94,3.94,0,0,0,.81-2.73,3.77,3.77,0,0,0-.81-2.62,2.72,2.72,0,0,0-4,0A3.87,3.87,0,0,0,99.24,56.48Z" transform="translate(-3.34 -25.81)"/><path d="M107.8,58.36l1.61-.24a2.15,2.15,0,0,0,.75,1.44,2.72,2.72,0,0,0,1.73.5,2.61,2.61,0,0,0,1.66-.44,1.34,1.34,0,0,0,.55-1,1,1,0,0,0-.48-.85A7.17,7.17,0,0,0,112,57.2a15,15,0,0,1-2.48-.77,2.35,2.35,0,0,1-1-.88,2.37,2.37,0,0,1-.06-2.41,2.41,2.41,0,0,1,.8-.88,3.2,3.2,0,0,1,1-.47,5.26,5.26,0,0,1,1.4-.18,5.74,5.74,0,0,1,2,.31,2.7,2.7,0,0,1,1.25.86,3.15,3.15,0,0,1,.56,1.44l-1.58.22a1.73,1.73,0,0,0-.63-1.13,2.36,2.36,0,0,0-1.47-.4,2.72,2.72,0,0,0-1.6.36,1,1,0,0,0-.48.84.85.85,0,0,0,.2.55,1.55,1.55,0,0,0,.63.43c.16,0,.64.19,1.43.4a21.38,21.38,0,0,1,2.41.73,2.48,2.48,0,0,1,1.07.83,2.3,2.3,0,0,1,.39,1.36,2.59,2.59,0,0,1-.48,1.49A3.07,3.07,0,0,1,113.92,61a5.16,5.16,0,0,1-2,.38,4.65,4.65,0,0,1-2.85-.75A3.54,3.54,0,0,1,107.8,58.36Z" transform="translate(-3.34 -25.81)"/><path d="M123,61.15V48.27h9.81v2.18h-7.14V53.3h6.65v2.17h-6.65V59H133v2.17Z" transform="translate(-3.34 -25.81)"/><path d="M134.38,58.49l2.55-.38a1.81,1.81,0,0,0,.66,1.09,2.25,2.25,0,0,0,1.39.38,2.61,2.61,0,0,0,1.48-.35.8.8,0,0,0,.33-.66.64.64,0,0,0-.18-.47,1.92,1.92,0,0,0-.85-.32,14.12,14.12,0,0,1-3.89-1.21,2.38,2.38,0,0,1-1.14-2.1,2.56,2.56,0,0,1,1-2,4.67,4.67,0,0,1,3.05-.82,5.37,5.37,0,0,1,2.92.62A3.19,3.19,0,0,1,143,54.08l-2.39.43a1.43,1.43,0,0,0-.58-.84,2.24,2.24,0,0,0-1.23-.29,2.84,2.84,0,0,0-1.43.27.59.59,0,0,0-.29.5.53.53,0,0,0,.25.45,9.41,9.41,0,0,0,2.37.7,7,7,0,0,1,2.83,1.1,2.24,2.24,0,0,1,.8,1.83,2.81,2.81,0,0,1-1.1,2.21,5,5,0,0,1-3.26.92,5.49,5.49,0,0,1-3.1-.77A3.59,3.59,0,0,1,134.38,58.49Z" transform="translate(-3.34 -25.81)"/><path d="M145.49,51.82h2.36v1.37A3.56,3.56,0,0,1,149.1,52a3.51,3.51,0,0,1,1.74-.43,3.68,3.68,0,0,1,2.83,1.27,5,5,0,0,1,1.17,3.55,5.21,5.21,0,0,1-1.17,3.63,3.7,3.7,0,0,1-2.85,1.3,3.24,3.24,0,0,1-1.44-.31A4.75,4.75,0,0,1,148,60v4.7h-2.53ZM148,56.33a3.51,3.51,0,0,0,.64,2.32,2,2,0,0,0,1.56.75,1.85,1.85,0,0,0,1.47-.69,3.48,3.48,0,0,0,.59-2.26,3.26,3.26,0,0,0-.61-2.18,1.86,1.86,0,0,0-1.5-.71,2,2,0,0,0-1.54.7A3,3,0,0,0,148,56.33Z" transform="translate(-3.34 -25.81)"/><path d="M158.75,54.66l-2.3-.4a3.43,3.43,0,0,1,1.33-2,4.94,4.94,0,0,1,2.82-.65,6.27,6.27,0,0,1,2.53.39,2.54,2.54,0,0,1,1.17,1,5.09,5.09,0,0,1,.33,2.21l0,2.88a10,10,0,0,0,.12,1.82,4.93,4.93,0,0,0,.46,1.25h-2.51c-.07-.16-.15-.41-.25-.73a2.74,2.74,0,0,0-.09-.29,4.48,4.48,0,0,1-1.39.92,4,4,0,0,1-1.58.31,3.31,3.31,0,0,1-2.33-.78,2.72,2.72,0,0,1-.47-3.39,2.53,2.53,0,0,1,1.09-.95,8.56,8.56,0,0,1,2-.57,14,14,0,0,0,2.46-.61v-.25a1.25,1.25,0,0,0-.36-1,2.21,2.21,0,0,0-1.36-.3,1.89,1.89,0,0,0-1.06.25A1.82,1.82,0,0,0,158.75,54.66Zm3.39,2c-.32.1-.84.23-1.54.38a4.43,4.43,0,0,0-1.38.43,1,1,0,0,0-.5.87,1.17,1.17,0,0,0,.4.89,1.36,1.36,0,0,0,1,.38,2.27,2.27,0,0,0,1.31-.44,1.46,1.46,0,0,0,.6-.82,4.53,4.53,0,0,0,.1-1.2Z" transform="translate(-3.34 -25.81)"/><path d="M175.5,54.58,173,55a1.7,1.7,0,0,0-.57-1.1,1.74,1.74,0,0,0-1.16-.37,1.93,1.93,0,0,0-1.51.63,3.21,3.21,0,0,0-.57,2.14,3.69,3.69,0,0,0,.58,2.34,1.89,1.89,0,0,0,1.54.69,1.72,1.72,0,0,0,1.18-.4,2.41,2.41,0,0,0,.65-1.38l2.49.42a4.27,4.27,0,0,1-1.49,2.52,4.68,4.68,0,0,1-2.95.85,4.44,4.44,0,0,1-3.35-1.29,4.9,4.9,0,0,1-1.25-3.58,4.93,4.93,0,0,1,1.25-3.6,4.52,4.52,0,0,1,3.4-1.28,4.72,4.72,0,0,1,2.78.73A4.09,4.09,0,0,1,175.5,54.58Z" transform="translate(-3.34 -25.81)"/><path d="M177.42,50.55V48.27H180v2.28Zm0,10.6V51.82H180v9.33Z" transform="translate(-3.34 -25.81)"/><path d="M182,56.35a5,5,0,0,1,.62-2.38,4.23,4.23,0,0,1,1.77-1.76,5.39,5.39,0,0,1,2.55-.6A4.82,4.82,0,0,1,190.47,53a5.08,5.08,0,0,1,0,7,4.8,4.8,0,0,1-3.53,1.39,5.67,5.67,0,0,1-2.52-.58,4.05,4.05,0,0,1-1.82-1.7A5.62,5.62,0,0,1,182,56.35Zm2.6.13a3,3,0,0,0,.68,2.13,2.24,2.24,0,0,0,3.33,0,3.07,3.07,0,0,0,.67-2.14,3,3,0,0,0-.67-2.11,2.24,2.24,0,0,0-3.33,0A3,3,0,0,0,184.57,56.48Z" transform="translate(-3.34 -25.81)"/><path d="M193,58.49l2.54-.38a1.81,1.81,0,0,0,.66,1.09,2.25,2.25,0,0,0,1.39.38,2.59,2.59,0,0,0,1.48-.35.81.81,0,0,0,.34-.66.61.61,0,0,0-.19-.47,1.82,1.82,0,0,0-.84-.32,13.87,13.87,0,0,1-3.89-1.21,2.38,2.38,0,0,1-1.14-2.1,2.57,2.57,0,0,1,1-2,4.71,4.71,0,0,1,3.05-.82,5.41,5.41,0,0,1,2.93.62,3.19,3.19,0,0,1,1.32,1.85l-2.4.43a1.39,1.39,0,0,0-.58-.84,2.18,2.18,0,0,0-1.22-.29,2.86,2.86,0,0,0-1.44.27.59.59,0,0,0-.29.5.54.54,0,0,0,.26.45,9.41,9.41,0,0,0,2.37.7,7.11,7.11,0,0,1,2.83,1.1,2.23,2.23,0,0,1,.79,1.83,2.81,2.81,0,0,1-1.1,2.21,5,5,0,0,1-3.26.92,5.49,5.49,0,0,1-3.1-.77A3.57,3.57,0,0,1,193,58.49Z" transform="translate(-3.34 -25.81)"/><path d="M220.54,61.15h-2.91l-1.16-2.93h-5.29l-1.09,2.93h-2.83l5.15-12.88h2.83Zm-4.92-5.1-1.83-4.78L212,56.05Z" transform="translate(-3.34 -25.81)"/><path d="M230.3,54.58l-2.51.44a1.7,1.7,0,0,0-.57-1.1,1.74,1.74,0,0,0-1.16-.37,1.93,1.93,0,0,0-1.51.63,3.21,3.21,0,0,0-.57,2.14,3.69,3.69,0,0,0,.58,2.34,1.89,1.89,0,0,0,1.54.69,1.72,1.72,0,0,0,1.18-.4,2.41,2.41,0,0,0,.65-1.38l2.49.42a4.27,4.27,0,0,1-1.49,2.52,4.68,4.68,0,0,1-3,.85,4.44,4.44,0,0,1-3.35-1.29,4.9,4.9,0,0,1-1.25-3.58,4.93,4.93,0,0,1,1.25-3.6,4.52,4.52,0,0,1,3.4-1.28,4.72,4.72,0,0,1,2.78.73A4.09,4.09,0,0,1,230.3,54.58Z" transform="translate(-3.34 -25.81)"/><path d="M238.53,61.15v-1.4a3.69,3.69,0,0,1-1.38,1.18,3.91,3.91,0,0,1-1.8.43,3.65,3.65,0,0,1-1.73-.41,2.49,2.49,0,0,1-1.11-1.16,5,5,0,0,1-.35-2.07v-5.9h2.54v4.29a11.85,11.85,0,0,0,.14,2.41,1.29,1.29,0,0,0,.51.7,1.63,1.63,0,0,0,.94.26,2,2,0,0,0,1.16-.35,1.77,1.77,0,0,0,.71-.86,9.55,9.55,0,0,0,.19-2.52V51.82h2.54v9.33Z" transform="translate(-3.34 -25.81)"/><path d="M245.41,54.66l-2.3-.4a3.43,3.43,0,0,1,1.33-2,4.94,4.94,0,0,1,2.82-.65,6.27,6.27,0,0,1,2.53.39A2.54,2.54,0,0,1,251,53a5.09,5.09,0,0,1,.33,2.21l0,2.88a10,10,0,0,0,.12,1.82,4.93,4.93,0,0,0,.46,1.25h-2.51c-.07-.16-.15-.41-.25-.73a2.74,2.74,0,0,0-.09-.29,4.48,4.48,0,0,1-1.39.92,4,4,0,0,1-1.58.31,3.31,3.31,0,0,1-2.33-.78,2.72,2.72,0,0,1-.47-3.39,2.53,2.53,0,0,1,1.09-.95,8.56,8.56,0,0,1,2-.57,14,14,0,0,0,2.46-.61v-.25a1.25,1.25,0,0,0-.36-1,2.21,2.21,0,0,0-1.36-.3,1.91,1.91,0,0,0-1.06.25A1.82,1.82,0,0,0,245.41,54.66Zm3.39,2c-.32.1-.84.23-1.54.38a4.43,4.43,0,0,0-1.38.43,1,1,0,0,0-.5.87,1.17,1.17,0,0,0,.4.89,1.36,1.36,0,0,0,1,.38,2.27,2.27,0,0,0,1.31-.44,1.46,1.46,0,0,0,.6-.82,4.53,4.53,0,0,0,.1-1.2Zm-2.74-6,1.24-2.62h2.85l-2.48,2.62Z" transform="translate(-3.34 -25.81)"/><path d="M258.19,51.82v2h-1.73v3.76a9.64,9.64,0,0,0,.05,1.33.56.56,0,0,0,.22.31.75.75,0,0,0,.43.12,3.49,3.49,0,0,0,1-.23L258.4,61a5.09,5.09,0,0,1-2,.37,3.26,3.26,0,0,1-1.24-.22,1.84,1.84,0,0,1-.81-.58,2.34,2.34,0,0,1-.36-1,12.2,12.2,0,0,1-.08-1.74V53.79h-1.16v-2h1.16V50l2.55-1.44v3.3Z" transform="translate(-3.34 -25.81)"/><path d="M260,50.55V48.27h2.54v2.28Zm0,10.6V51.82h2.54v9.33Z" transform="translate(-3.34 -25.81)"/><path d="M273.45,54.58,271,55a1.79,1.79,0,0,0-.57-1.1,1.75,1.75,0,0,0-1.16-.37,1.94,1.94,0,0,0-1.52.63,3.27,3.27,0,0,0-.56,2.14,3.7,3.7,0,0,0,.57,2.34,1.9,1.9,0,0,0,1.54.69,1.71,1.71,0,0,0,1.18-.4,2.35,2.35,0,0,0,.65-1.38l2.5.42a4.32,4.32,0,0,1-1.49,2.52,4.71,4.71,0,0,1-3,.85,4.44,4.44,0,0,1-3.35-1.29,4.94,4.94,0,0,1-1.25-3.58,5,5,0,0,1,1.25-3.6,4.52,4.52,0,0,1,3.4-1.28,4.68,4.68,0,0,1,2.78.73A4,4,0,0,1,273.45,54.58Z" transform="translate(-3.34 -25.81)"/><path d="M274.79,56.35a4.89,4.89,0,0,1,.62-2.38,4.21,4.21,0,0,1,1.76-1.76,5.39,5.39,0,0,1,2.55-.6A4.85,4.85,0,0,1,283.29,53a4.69,4.69,0,0,1,1.39,3.48,4.76,4.76,0,0,1-1.4,3.51,4.82,4.82,0,0,1-3.54,1.39,5.63,5.63,0,0,1-2.51-.58,4,4,0,0,1-1.82-1.7A5.51,5.51,0,0,1,274.79,56.35Zm2.6.13a3,3,0,0,0,.67,2.13,2.25,2.25,0,0,0,3.34,0,3.07,3.07,0,0,0,.67-2.14,3,3,0,0,0-.67-2.11,2.25,2.25,0,0,0-3.34,0A3,3,0,0,0,277.39,56.48Z" transform="translate(-3.34 -25.81)"/><path d="M285.77,58.49l2.55-.38A1.81,1.81,0,0,0,289,59.2a2.25,2.25,0,0,0,1.39.38,2.61,2.61,0,0,0,1.48-.35.8.8,0,0,0,.33-.66.64.64,0,0,0-.18-.47,1.87,1.87,0,0,0-.85-.32,14.12,14.12,0,0,1-3.89-1.21,2.37,2.37,0,0,1-1.13-2.1,2.55,2.55,0,0,1,1-2,4.67,4.67,0,0,1,3.05-.82,5.44,5.44,0,0,1,2.93.62,3.22,3.22,0,0,1,1.31,1.85l-2.39.43a1.43,1.43,0,0,0-.58-.84,2.2,2.2,0,0,0-1.22-.29,2.86,2.86,0,0,0-1.44.27.59.59,0,0,0-.29.5.55.55,0,0,0,.25.45,9.41,9.41,0,0,0,2.37.7,7,7,0,0,1,2.83,1.1,2.24,2.24,0,0,1,.8,1.83,2.81,2.81,0,0,1-1.1,2.21,5,5,0,0,1-3.26.92,5.49,5.49,0,0,1-3.1-.77A3.63,3.63,0,0,1,285.77,58.49Z" transform="translate(-3.34 -25.81)"/></svg>