<svg xmlns="http://www.w3.org/2000/svg" viewBox="0 0 734.64 299.86"><defs><style>.cls-1{isolation:isolate;font-size:171.86px;font-family:Arial-BoldItalicMT, Arial;font-weight:700;font-style:italic;}.cls-2{letter-spacing:-0.04em;}.cls-3{fill:#13337e;}</style></defs><g id="Capa_1" data-name="Capa 1"><g id="Capa_2" data-name="Capa 2"><text class="cls-1" transform="translate(344.1 220.19) scale(0.97 1)">INE<tspan class="cls-2" x="286.49" y="0">A</tspan></text></g></g><g id="Capa_2-2" data-name="Capa 2"><g id="Capa_1-2" data-name="Capa 1"><g id="JBNbZa"><path class="cls-3" d="M352.29,175.76C333.63,184.93,315,193.44,297,203.13c-22.46,12.12-43.15,26.78-60.37,45.84-12.51,13.88-22.07,29.47-24.88,48.32-3.61,23.64,4.71,44,18.33,62.54,23.25,31.56,54.94,51.93,90.1,67.45,42.24,18.66,86.77,29.27,132.15,36.34,23.38,3.6,46.88,6.29,68.95,9.17-55.92,3.6-113.15,4.19-170.38-.72-54-4.65-107.07-13.56-158.41-31.37-35.1-12.18-67.64-29-94.16-55.59C81.72,368.47,71.5,348.76,73.66,324.4c1.84-20,11.46-36.67,24-51.79,21.94-26.52,50.23-44,81.66-57,42.43-17.42,86.83-27.5,132-34.45C324.92,179.16,338.54,177.59,352.29,175.76Z" transform="translate(-13.68 -175.76)"/><path class="cls-3" d="M380.38,433.17C332.25,421.38,287.2,403.57,252,367c-14.08-14.6-22.72-31.69-23.18-52.38-.46-19.25,8.38-34.18,22.53-46,25.14-21.15,55.46-30.45,88.66-37.78-9.82,7.53-18.27,13.62-26.19,20.3C301,261.8,289.89,274,281.57,288.52c-16,27.9-14.28,54.74,5.11,80.22,16.7,22.06,39.35,36.86,63.25,49.76C359.69,423.94,370.17,428.33,380.38,433.17Z" transform="translate(-13.68 -175.76)"/><path class="cls-3" d="M182.82,448c-20.69-3.8-41.58-6.88-62.08-11.52-25.27-5.77-49.57-14.54-71.31-29.28-12.5-8.51-22.85-19-29.79-32.67-9.5-18.73-7.4-36.48,4.52-53.3,12.44-17.68,30.38-27.51,50.09-34.84C71,296.9,66.92,307.05,65,317.66c-7.2,39.62,8.25,70.07,39.82,93.25C126.64,427,151.59,436.58,177.45,444c2,.59,3.87,1.11,5.83,1.7Z" transform="translate(-13.68 -175.76)"/></g></g></g></svg>