<?xml version="1.0" encoding="utf-8"?>
<!-- Generator: Adobe Illustrator 26.0.2, SVG Export Plug-In . SVG Version: 6.00 Build 0)  -->
<svg version="1.1" id="Capa_1" xmlns="http://www.w3.org/2000/svg" xmlns:xlink="http://www.w3.org/1999/xlink" x="0px" y="0px"
	 viewBox="0 0 96.6 96.8" style="enable-background:new 0 0 96.6 96.8;" xml:space="preserve">
<style type="text/css">
	.st0{fill:url(#SVGID_1_);}
	.st1{fill:url(#SVGID_00000023266397408973314480000010338803759179788685_);}
	.st2{fill:#1E366A;}
	.st3{fill:#181B14;}
</style>
<g>
	<g id="Capa_2_00000173868700539738144340000002046053421156311700_">
		<g id="Capa_1-2">
			
				<linearGradient id="SVGID_1_" gradientUnits="userSpaceOnUse" x1="17.9094" y1="79.9906" x2="78.7206" y2="19.1794" gradientTransform="matrix(1 0 0 -1 0 98)">
				<stop  offset="0" style="stop-color:#8597C7"/>
				<stop  offset="0.33" style="stop-color:#8CA4C8"/>
				<stop  offset="0.94" style="stop-color:#A0C6CC"/>
				<stop  offset="1" style="stop-color:#A2CACC"/>
			</linearGradient>
			<path class="st0" d="M78.7,18c-16.8-16.8-44-16.8-60.8,0s-16.8,44,0,60.8s44,16.8,60.8,0c0,0,0,0,0,0C95.5,62,95.5,34.8,78.7,18z
				 M70.9,71c-12.5,12.5-32.7,12.5-45.3,0.1s-12.5-32.7-0.1-45.3s32.7-12.5,45.3-0.1c0,0,0,0,0.1,0.1C83.4,38.3,83.4,58.5,70.9,71z"
				/>
			
				<linearGradient id="SVGID_00000037682253509224479790000016711020019538982538_" gradientUnits="userSpaceOnUse" x1="22.8627" y1="48.985" x2="73.8828" y2="48.985" gradientTransform="matrix(1 0 0 -1 0 98)">
				<stop  offset="0" style="stop-color:#8597C7"/>
				<stop  offset="0.33" style="stop-color:#8CA4C8"/>
				<stop  offset="0.94" style="stop-color:#A0C6CC"/>
				<stop  offset="1" style="stop-color:#A2CACC"/>
			</linearGradient>
			<path style="fill:url(#SVGID_00000037682253509224479790000016711020019538982538_);" d="M48.3,74.5c-14.1,0-25.5-11.5-25.5-25.5
				c0-6.8,2.7-13.2,7.5-18l0,0c10-10,26.1-10,36.1,0s10,26.1,0,36.1C61.6,71.8,55.1,74.5,48.3,74.5z M48.3,25.8
				c-6.2,0-12.1,2.4-16.4,6.8l0,0c-9.1,9.1-9.1,23.8,0,32.8s23.8,9.1,32.8,0c9.1-9.1,9.1-23.8,0-32.8C60.4,28.2,54.5,25.8,48.3,25.8
				z"/>
			<path class="st2" d="M69.1,53.4c-14.5-1.2-20.5-5-23.2-8.3c-7.9-9.4,9.5-15.3,9.5-15.3s-13,1-18.8,5.9c-1.1,0.9-8.2,7,0.8,12.8
				c0,0,7.2,5.8,27.4,5.1L69.1,53.4z"/>
			<path class="st2" d="M57.9,50.6c-9.7-2.2-12-7.1-12-7.1c-3.7-7.5,8.4-9.3,8.4-9.3s-13.5,7.7,1.1,15.2L57.9,50.6z"/>
			<path class="st2" d="M33.2,38.6c0,0-5.6,9.3,9.2,12.9c0,0-13.3-0.6-14.2-7.4C28.2,44,27.8,40.5,33.2,38.6"/>
			<polygon class="st3" points="32.9,55.8 36.7,55.8 34.5,60.8 30.8,60.8 			"/>
			<polygon class="st3" points="41.7,55.8 37.9,55.8 35.8,60.8 38.9,60.8 40.2,57.9 41.2,60.8 44.9,60.8 47.2,55.8 44,55.8 
				42.6,58.9 			"/>
			<polygon class="st3" points="51.6,57.3 56.4,57.3 57.1,55.9 57.1,55.8 49,55.8 46.9,60.8 50.6,60.8 54.9,60.8 55.3,59.7 
				50.5,59.7 50.9,59 55.7,59 56.1,58 51.3,58 			"/>
			<path d="M60.8,55.8l-4.8,5h3.5l0.7-0.7h3v0.7h3.3v-5L60.8,55.8z M61.2,58.9l1.9-2h0.1v2H61.2z"/>
		</g>
	</g>
</g>
</svg>
