<?xml version="1.0" encoding="utf-8"?>
<!-- Generator: Adobe Illustrator 26.0.2, SVG Export Plug-In . SVG Version: 6.00 Build 0)  -->
<svg version="1.1" xmlns="http://www.w3.org/2000/svg" xmlns:xlink="http://www.w3.org/1999/xlink" x="0px" y="0px"
	 viewBox="0 0 775.3 727.3" style="enable-background:new 0 0 775.3 727.3;" xml:space="preserve">
<style type="text/css">
	.st0{font-family:'Arial-BoldItalicMT';}
	.st1{font-size:171.8581px;}
	.st2{fill:#13337E;}
</style>
<g id="Capa_1">
	<g id="Capa_2_00000128453806556779302710000003902712885531467430_">
		<text transform="matrix(0.9661 0 0 1 357.7794 395.9468)" class="st0 st1">INEA</text>
	</g>
</g>
<g id="Capa_2">
	<g id="Capa_1_00000016050203565519448180000007728984177475504817_">
		<g id="JBNbZa">
			<path class="st2" d="M352.3,175.8c-18.7,9.2-37.3,17.7-55.3,27.4c-22.5,12.1-43.2,26.8-60.4,45.8c-12.5,13.9-22.1,29.5-24.9,48.3
				c-3.6,23.6,4.7,44,18.3,62.5c23.2,31.6,54.9,51.9,90.1,67.4c42.2,18.7,86.8,29.3,132.1,36.3c23.4,3.6,46.9,6.3,69,9.2
				c-55.9,3.6-113.2,4.2-170.4-0.7c-54-4.6-107.1-13.6-158.4-31.4c-35.1-12.2-67.6-29-94.2-55.6c-16.6-16.6-26.8-36.3-24.7-60.7
				c1.8-20,11.5-36.7,24-51.8c21.9-26.5,50.2-44,81.7-57c42.4-17.4,86.8-27.5,132-34.4C324.9,179.2,338.5,177.6,352.3,175.8z"/>
			<path class="st2" d="M380.4,433.2c-48.1-11.8-93.2-29.6-128.4-66.1c-14.1-14.6-22.7-31.7-23.2-52.4c-0.5-19.3,8.4-34.2,22.5-46
				c25.1-21.2,55.5-30.4,88.7-37.8c-9.8,7.5-18.3,13.6-26.2,20.3c-12.8,10.7-23.9,22.9-32.2,37.4c-16,27.9-14.3,54.7,5.1,80.2
				c16.7,22.1,39.4,36.9,63.3,49.8C359.7,423.9,370.2,428.3,380.4,433.2z"/>
			<path class="st2" d="M182.8,448c-20.7-3.8-41.6-6.9-62.1-11.5c-25.3-5.8-49.6-14.5-71.3-29.3c-12.5-8.5-22.9-19-29.8-32.7
				c-9.5-18.7-7.4-36.5,4.5-53.3c12.4-17.7,30.4-27.5,50.1-34.8c-3.2,10.5-7.3,20.7-9.3,31.3c-7.2,39.6,8.3,70.1,39.8,93.2
				c21.9,16.1,46.8,25.7,72.7,33.1c2,0.6,3.9,1.1,5.8,1.7L182.8,448z"/>
		</g>
	</g>
</g>
</svg>
