<svg xmlns="http://www.w3.org/2000/svg" viewBox="0 0 59.34 23.88"><defs><style>.cls-1{fill:#1e366a;}.cls-2{fill:#181b14;}</style></defs><g id="Capa_2" data-name="Capa 2"><g id="Capa_1-2" data-name="Capa 1"><path class="cls-1" d="M40.88,23.63c-14.51-1.18-20.44-5-23.2-8.29C9.78,6,27.19,0,27.19,0s-13,1-18.77,5.94c-1.06.91-8.24,7,.82,12.77,0,0,7.26,5.78,27.44,5.11Z"/><path class="cls-1" d="M29.69,20.75c-9.73-2.24-12-7.07-12-7.07C14,6.21,26,4.35,26,4.35S12.55,12,27.1,19.59Z"/><path class="cls-1" d="M5,8.73s-5.6,9.35,9.22,12.92c0,0-13.34-.63-14.2-7.44,0,0-.43-3.58,5-5.48"/><polygon class="cls-2" points="25.71 9.97 29.48 9.97 27.28 14.93 23.55 14.93 25.71 9.97"/><polygon class="cls-2" points="34.5 9.97 30.73 9.97 28.57 14.93 31.66 14.93 33.03 12.09 33.99 14.93 37.73 14.93 39.95 9.97 36.8 9.97 35.41 13.03 34.5 9.97"/><polygon class="cls-2" points="44.43 11.43 49.23 11.43 49.86 10.04 49.86 9.97 41.82 9.97 39.66 14.93 43.4 14.93 47.65 14.93 48.14 13.84 43.34 13.84 43.66 13.12 48.46 13.12 48.9 12.15 44.1 12.15 44.43 11.43"/><path d="M53.62,9.94l-4.84,5h3.51l.73-.73h3l0,.73h3.35V10ZM54,13l1.9-2H56l0,2Z"/></g></g></svg>