<svg xmlns="http://www.w3.org/2000/svg" viewBox="0 0 1041 71"><defs><style>.cls-1{fill:#fff;}.cls-2{fill:#211915;}.cls-3{fill:#f7eb48;}.cls-4{fill:#3363a5;}.cls-5{fill:#be001d;}.cls-6{fill:#dc9c3c;}.cls-7{fill:#273262;}.cls-8{fill:#be0811;}.cls-9{fill:#c44336;}.cls-10{fill:#c44335;}</style></defs><g id="Capa_2" data-name="Capa 2"><g id="Capa_4" data-name="Capa 4"><rect class="cls-1" width="1041" height="71"/></g><g id="Capa_1-2" data-name="Capa 1"><rect class="cls-2" x="201.96" y="24.15" width="0.97" height="24.46"/><path class="cls-2" d="M52.86,30.84V29.48h5v4.31a8.88,8.88,0,0,1-2.4,1.35,7.08,7.08,0,0,1-2.53.46,6.87,6.87,0,0,1-3.18-.74,4.8,4.8,0,0,1-2.16-2.11,6.47,6.47,0,0,1-.73-3.09,7,7,0,0,1,.72-3.16,4.75,4.75,0,0,1,2.09-2.18,6.64,6.64,0,0,1,3.14-.72,6.36,6.36,0,0,1,2.33.41,3.91,3.91,0,0,1,1.64,1.13,5.14,5.14,0,0,1,.9,1.91l-1.42.38a4.15,4.15,0,0,0-.67-1.4,2.82,2.82,0,0,0-1.13-.81,4.32,4.32,0,0,0-1.64-.3,5,5,0,0,0-1.87.32,3.52,3.52,0,0,0-1.27.84A4.07,4.07,0,0,0,49,27.22a5.94,5.94,0,0,0-.45,2.33,5.53,5.53,0,0,0,.55,2.6,3.39,3.39,0,0,0,1.59,1.54,5,5,0,0,0,2.22.51,5.55,5.55,0,0,0,2-.38A5.37,5.37,0,0,0,56.36,33V30.84Z"/><path class="cls-2" d="M58.79,31.19a4.27,4.27,0,0,1,1.33-3.46,4.07,4.07,0,0,1,2.71-.93,3.93,3.93,0,0,1,2.9,1.13,4.28,4.28,0,0,1,1.13,3.14,5.35,5.35,0,0,1-.5,2.55,3.42,3.42,0,0,1-1.45,1.44,4.25,4.25,0,0,1-2.08.52,3.92,3.92,0,0,1-2.93-1.14A4.45,4.45,0,0,1,58.79,31.19Zm1.5,0A3.51,3.51,0,0,0,61,33.6a2.44,2.44,0,0,0,3.63,0,3.61,3.61,0,0,0,.72-2.46,3.37,3.37,0,0,0-.73-2.36,2.3,2.3,0,0,0-1.8-.8,2.35,2.35,0,0,0-1.82.79A3.53,3.53,0,0,0,60.29,31.19Z"/><path class="cls-2" d="M69.22,35.39H67.87V23.79h1.46v4.14a2.88,2.88,0,0,1,2.36-1.13,3.63,3.63,0,0,1,1.5.31,3.12,3.12,0,0,1,1.17.88,4.29,4.29,0,0,1,.72,1.36,5.62,5.62,0,0,1,.26,1.71,4.72,4.72,0,0,1-1.1,3.34,3.48,3.48,0,0,1-2.63,1.18,2.78,2.78,0,0,1-2.39-1.24Zm0-4.27a4.31,4.31,0,0,0,.42,2.19,2.12,2.12,0,0,0,3.52.29,3.68,3.68,0,0,0,.7-2.42,3.71,3.71,0,0,0-.67-2.43A2.07,2.07,0,0,0,71.56,28a2.13,2.13,0,0,0-1.66.81A3.51,3.51,0,0,0,69.21,31.12Z"/><path class="cls-2" d="M76.42,25.43V23.79h1.47v1.64Zm0,10V27h1.47v8.4Z"/><path class="cls-2" d="M85.31,32.68l1.51.19a3.62,3.62,0,0,1-1.33,2,4.05,4.05,0,0,1-2.46.71,4,4,0,0,1-3-1.14,4.33,4.33,0,0,1-1.11-3.18A4.58,4.58,0,0,1,80,28,3.86,3.86,0,0,1,83,26.8,3.71,3.71,0,0,1,85.77,28a4.47,4.47,0,0,1,1.09,3.22v.38H80.43a3.18,3.18,0,0,0,.81,2.12,2.42,2.42,0,0,0,1.8.74A2.31,2.31,0,0,0,84.41,34,2.76,2.76,0,0,0,85.31,32.68Zm-4.8-2.3h4.81a2.82,2.82,0,0,0-.55-1.59A2.25,2.25,0,0,0,83,28a2.38,2.38,0,0,0-1.69.65A2.63,2.63,0,0,0,80.51,30.38Z"/><path class="cls-2" d="M87.93,35.39V27h1.32v1.27a3.68,3.68,0,0,1,.93-1.18,1.65,1.65,0,0,1,.94-.28,2.87,2.87,0,0,1,1.5.46l-.51,1.32A2.06,2.06,0,0,0,91,28.27a1.41,1.41,0,0,0-.86.28,1.58,1.58,0,0,0-.54.78A5.5,5.5,0,0,0,89.4,31v4.4Z"/><path class="cls-2" d="M92.79,35.39V27H94.1v1.19a3.12,3.12,0,0,1,2.74-1.38,3.77,3.77,0,0,1,1.44.27,2.17,2.17,0,0,1,1,.72,2.65,2.65,0,0,1,.46,1.05,8.42,8.42,0,0,1,.08,1.38v5.17H98.33V30.28a3.8,3.8,0,0,0-.17-1.3,1.41,1.41,0,0,0-.61-.69,2,2,0,0,0-1-.26,2.38,2.38,0,0,0-1.6.58,2.77,2.77,0,0,0-.68,2.19v4.59Z"/><path class="cls-2" d="M100.78,31.19a4.27,4.27,0,0,1,1.34-3.46,4.07,4.07,0,0,1,2.71-.93,3.93,3.93,0,0,1,2.9,1.13,4.28,4.28,0,0,1,1.13,3.14,5.47,5.47,0,0,1-.5,2.55,3.47,3.47,0,0,1-1.45,1.44,4.25,4.25,0,0,1-2.08.52,3.91,3.91,0,0,1-2.93-1.14A4.45,4.45,0,0,1,100.78,31.19Zm1.51,0A3.51,3.51,0,0,0,103,33.6a2.33,2.33,0,0,0,1.82.81,2.31,2.31,0,0,0,1.8-.81,3.56,3.56,0,0,0,.73-2.46,3.42,3.42,0,0,0-.73-2.36,2.3,2.3,0,0,0-1.8-.8,2.35,2.35,0,0,0-1.82.79A3.53,3.53,0,0,0,102.29,31.19Z"/><path class="cls-2" d="M112.82,23.79h4.75a13.61,13.61,0,0,1,2.11.12,3,3,0,0,1,1.24.48,2.84,2.84,0,0,1,.91,1,2.57,2.57,0,0,1,.36,1.35,2.76,2.76,0,0,1-.44,1.5,2.86,2.86,0,0,1-1.23,1,3.06,3.06,0,0,1,1.67,1.05,2.76,2.76,0,0,1,.59,1.75,3.33,3.33,0,0,1-.38,1.53,3.09,3.09,0,0,1-1,1.2,3.42,3.42,0,0,1-1.61.55c-.4,0-1.36.07-2.89.08h-4.05Zm2.4,1.93V28.4h1.57c.94,0,1.52,0,1.75,0a1.57,1.57,0,0,0,1-.41,1.23,1.23,0,0,0,.35-.91,1.2,1.2,0,0,0-.31-.87,1.36,1.36,0,0,0-.9-.41c-.24,0-.92,0-2.05,0Zm0,4.62v3.09h2.22a10.91,10.91,0,0,0,1.65-.07,1.45,1.45,0,0,0,.87-.46,1.43,1.43,0,0,0,.34-1A1.5,1.5,0,0,0,120,31a1.54,1.54,0,0,0-.75-.53,8.53,8.53,0,0,0-2.13-.16Z"/><path class="cls-2" d="M123.56,31.07a4.47,4.47,0,0,1,.56-2.14,3.87,3.87,0,0,1,1.59-1.59A4.84,4.84,0,0,1,128,26.8,4.39,4.39,0,0,1,131.21,28a4.57,4.57,0,0,1,0,6.29A4.34,4.34,0,0,1,128,35.58a5.1,5.1,0,0,1-2.26-.53,3.58,3.58,0,0,1-1.64-1.53A5,5,0,0,1,123.56,31.07Zm2.34.12a2.71,2.71,0,0,0,.61,1.91,2,2,0,0,0,3,0,2.77,2.77,0,0,0,.6-1.93,2.74,2.74,0,0,0-.6-1.9,2,2,0,0,0-3,0A2.72,2.72,0,0,0,125.9,31.19Z"/><path class="cls-2" d="M133.54,35.39V23.79h2.28v11.6Z"/><path class="cls-2" d="M137.46,25.85V23.79h2.28v2.06Zm0,9.54V27h2.28v8.4Z"/><path class="cls-2" d="M143.75,35.39,140.28,27h2.39l1.62,4.29.47,1.42c.13-.36.2-.6.24-.71s.15-.48.24-.71L146.88,27h2.34l-3.42,8.4Z"/><path class="cls-2" d="M151.62,29.55l-2.06-.36a3.11,3.11,0,0,1,1.2-1.81,4.46,4.46,0,0,1,2.53-.58,5.69,5.69,0,0,1,2.27.35,2.2,2.2,0,0,1,1.05.89,4.55,4.55,0,0,1,.3,2l0,2.6a8.21,8.21,0,0,0,.11,1.63,4.73,4.73,0,0,0,.41,1.13h-2.26c-.06-.15-.13-.37-.22-.66a1.37,1.37,0,0,0-.08-.26,4,4,0,0,1-1.25.83,3.53,3.53,0,0,1-1.42.28,3,3,0,0,1-2.09-.71,2.31,2.31,0,0,1-.77-1.77,2.41,2.41,0,0,1,.35-1.28,2.26,2.26,0,0,1,1-.85,7.75,7.75,0,0,1,1.81-.52,12.94,12.94,0,0,0,2.21-.54v-.23a1.12,1.12,0,0,0-.32-.91,2,2,0,0,0-1.23-.27,1.67,1.67,0,0,0-.94.23A1.7,1.7,0,0,0,151.62,29.55Zm3,1.8a12.5,12.5,0,0,1-1.38.34,4.35,4.35,0,0,0-1.24.39.93.93,0,0,0-.45.79,1.05,1.05,0,0,0,.36.8,1.25,1.25,0,0,0,.91.34,2,2,0,0,0,1.17-.39,1.41,1.41,0,0,0,.55-.74,4.37,4.37,0,0,0,.08-1.08Z"/><path class="cls-2" d="M160.65,35.39h-2.28V27h2.11v1.19a3.74,3.74,0,0,1,1-1.11,1.84,1.84,0,0,1,1-.27,2.94,2.94,0,0,1,1.5.42l-.71,1.93a2,2,0,0,0-1.07-.36,1.29,1.29,0,0,0-.81.26,1.7,1.7,0,0,0-.52.93,12.58,12.58,0,0,0-.19,2.81Z"/><path class="cls-2" d="M164.23,25.85V23.79h2.28v2.06Zm0,9.54V27h2.28v8.4Z"/><path class="cls-2" d="M169.85,29.55l-2.07-.36A3.16,3.16,0,0,1,169,27.38a4.44,4.44,0,0,1,2.53-.58,5.69,5.69,0,0,1,2.27.35,2.24,2.24,0,0,1,1.05.89,4.55,4.55,0,0,1,.3,2l0,2.6a8.21,8.21,0,0,0,.11,1.63,4.73,4.73,0,0,0,.41,1.13h-2.26c-.06-.15-.13-.37-.22-.66,0-.13-.06-.22-.08-.26a4.07,4.07,0,0,1-1.25.83,3.53,3.53,0,0,1-1.42.28,3,3,0,0,1-2.1-.71,2.47,2.47,0,0,1-.41-3,2.26,2.26,0,0,1,1-.85,7.61,7.61,0,0,1,1.81-.52,13.2,13.2,0,0,0,2.21-.54v-.23a1.12,1.12,0,0,0-.32-.91,2,2,0,0,0-1.23-.27,1.73,1.73,0,0,0-.95.23A1.69,1.69,0,0,0,169.85,29.55Zm3.05,1.8a12.5,12.5,0,0,1-1.38.34,4.24,4.24,0,0,0-1.24.39.93.93,0,0,0-.45.79,1.08,1.08,0,0,0,.35.8,1.27,1.27,0,0,0,.91.34,2,2,0,0,0,1.18-.39,1.34,1.34,0,0,0,.54-.74,4.23,4.23,0,0,0,.09-1.08Z"/><path class="cls-2" d="M184.53,35.39h-2.28V31.1a6.35,6.35,0,0,0-.15-1.76,1.34,1.34,0,0,0-.47-.62,1.38,1.38,0,0,0-.79-.22,1.82,1.82,0,0,0-1.07.32,1.55,1.55,0,0,0-.64.83,6.87,6.87,0,0,0-.18,1.93v3.81h-2.28V27h2.12v1.23a3.47,3.47,0,0,1,2.84-1.42,3.65,3.65,0,0,1,1.38.26,2.33,2.33,0,0,1,1,.68,2.35,2.35,0,0,1,.44.93,7,7,0,0,1,.13,1.5Z"/><path class="cls-2" d="M185.62,31.07a4.46,4.46,0,0,1,.55-2.14,3.87,3.87,0,0,1,1.59-1.59,4.84,4.84,0,0,1,2.29-.54A4.41,4.41,0,0,1,193.26,28a4.58,4.58,0,0,1,0,6.29,4.3,4.3,0,0,1-3.17,1.26,5.1,5.1,0,0,1-2.26-.53,3.58,3.58,0,0,1-1.64-1.53A5,5,0,0,1,185.62,31.07Zm2.33.12a2.71,2.71,0,0,0,.61,1.91,2,2,0,0,0,3,0,2.77,2.77,0,0,0,.6-1.93,2.74,2.74,0,0,0-.6-1.9,2,2,0,0,0-3,0A2.72,2.72,0,0,0,188,31.19Z"/><path class="cls-2" d="M52.7,49V47.92a2.71,2.71,0,0,1-2.41,1.25,3.38,3.38,0,0,1-1.9-.56,3.59,3.59,0,0,1-1.33-1.54,5.16,5.16,0,0,1-.48-2.28A5.76,5.76,0,0,1,47,42.51a3.31,3.31,0,0,1,1.29-1.57,3.45,3.45,0,0,1,1.92-.55,3,3,0,0,1,1.39.32,2.79,2.79,0,0,1,1,.83V37.38h1.45V49Zm-4.62-4.19a3.54,3.54,0,0,0,.7,2.41,2.1,2.1,0,0,0,3.27,0,3.45,3.45,0,0,0,.67-2.33A3.9,3.9,0,0,0,52,42.38a2.1,2.1,0,0,0-1.68-.81,2.07,2.07,0,0,0-1.63.77A3.82,3.82,0,0,0,48.08,44.79Z"/><path class="cls-2" d="M61.55,46.27l1.51.19a3.59,3.59,0,0,1-1.33,2A4.58,4.58,0,0,1,56.27,48a4.38,4.38,0,0,1-1.11-3.19,4.6,4.6,0,0,1,1.12-3.29,3.86,3.86,0,0,1,2.91-1.17A3.71,3.71,0,0,1,62,41.54a4.47,4.47,0,0,1,1.09,3.22v.39H56.67a3.2,3.2,0,0,0,.8,2.11,2.46,2.46,0,0,0,1.81.74,2.31,2.31,0,0,0,1.37-.41A2.72,2.72,0,0,0,61.55,46.27ZM56.75,44h4.81A2.82,2.82,0,0,0,61,42.38a2.25,2.25,0,0,0-1.81-.82,2.35,2.35,0,0,0-1.69.66A2.58,2.58,0,0,0,56.75,44Z"/><path class="cls-2" d="M71.69,49l-4.6-11.6h1.7l3.09,8.43c.25.67.46,1.31.63,1.9a19.28,19.28,0,0,1,.64-1.9l3.21-8.43H78L73.31,49Z"/><path class="cls-2" d="M83.47,46.27l1.51.19a3.62,3.62,0,0,1-1.32,2A4.58,4.58,0,0,1,78.2,48a4.38,4.38,0,0,1-1.11-3.19,4.56,4.56,0,0,1,1.12-3.29,3.83,3.83,0,0,1,2.9-1.17,3.73,3.73,0,0,1,2.83,1.15A4.47,4.47,0,0,1,85,44.76c0,.09,0,.22,0,.39H78.6a3.15,3.15,0,0,0,.8,2.11,2.42,2.42,0,0,0,1.8.74,2.27,2.27,0,0,0,1.37-.41A2.72,2.72,0,0,0,83.47,46.27ZM78.68,44h4.81a2.82,2.82,0,0,0-.55-1.59,2.26,2.26,0,0,0-1.81-.82,2.35,2.35,0,0,0-1.69.66A2.54,2.54,0,0,0,78.68,44Z"/><path class="cls-2" d="M86.12,49v-8.4h1.31v1.19a3.15,3.15,0,0,1,2.74-1.38,3.77,3.77,0,0,1,1.44.27,2.25,2.25,0,0,1,1,.72,2.65,2.65,0,0,1,.46,1,8.5,8.5,0,0,1,.08,1.38V49H91.66V43.87a3.84,3.84,0,0,0-.17-1.3,1.4,1.4,0,0,0-.61-.69,1.94,1.94,0,0,0-1-.25,2.4,2.4,0,0,0-1.61.57,2.8,2.8,0,0,0-.68,2.2V49Z"/><path class="cls-2" d="M100.56,46.27l1.51.19a3.59,3.59,0,0,1-1.33,2A4.58,4.58,0,0,1,95.28,48a4.38,4.38,0,0,1-1.11-3.19,4.6,4.6,0,0,1,1.12-3.29,3.86,3.86,0,0,1,2.91-1.17A3.71,3.71,0,0,1,101,41.54a4.47,4.47,0,0,1,1.1,3.22c0,.09,0,.22,0,.39H95.68a3.15,3.15,0,0,0,.81,2.11,2.42,2.42,0,0,0,1.8.74,2.31,2.31,0,0,0,1.37-.41A2.72,2.72,0,0,0,100.56,46.27ZM95.76,44h4.81a2.82,2.82,0,0,0-.55-1.59,2.25,2.25,0,0,0-1.81-.82,2.35,2.35,0,0,0-1.69.66A2.58,2.58,0,0,0,95.76,44Z"/><path class="cls-2" d="M102.43,49V47.83l5.48-6.14c-.62,0-1.17,0-1.64,0h-3.51V40.58h7v.94l-4.67,5.33-.9,1c.66,0,1.27-.08,1.84-.08h4V49Z"/><path class="cls-2" d="M116.46,49V47.75a3.17,3.17,0,0,1-2.74,1.42,3.74,3.74,0,0,1-1.42-.28,2.3,2.3,0,0,1-1-.72,2.62,2.62,0,0,1-.45-1.06,6.86,6.86,0,0,1-.09-1.32V40.58h1.46v4.66a8,8,0,0,0,.09,1.5,1.47,1.47,0,0,0,.58.88,1.82,1.82,0,0,0,1.11.32,2.46,2.46,0,0,0,1.23-.32,1.86,1.86,0,0,0,.81-.9,4.33,4.33,0,0,0,.24-1.64v-4.5h1.46V49Z"/><path class="cls-2" d="M125.25,46.27l1.51.19a3.62,3.62,0,0,1-1.32,2,4.1,4.1,0,0,1-2.47.71A4,4,0,0,1,120,48a4.41,4.41,0,0,1-1.1-3.19A4.56,4.56,0,0,1,120,41.56a3.82,3.82,0,0,1,2.9-1.17,3.71,3.71,0,0,1,2.82,1.15,4.47,4.47,0,0,1,1.1,3.22c0,.09,0,.22,0,.39h-6.42a3.15,3.15,0,0,0,.8,2.11A2.42,2.42,0,0,0,123,48a2.29,2.29,0,0,0,1.37-.41A2.72,2.72,0,0,0,125.25,46.27ZM120.46,44h4.81a2.9,2.9,0,0,0-.55-1.59,2.26,2.26,0,0,0-1.81-.82,2.33,2.33,0,0,0-1.69.66A2.54,2.54,0,0,0,120.46,44Z"/><path class="cls-2" d="M127.86,49V37.38h1.46V49Z"/><path class="cls-2" d="M136.51,47.94a5.31,5.31,0,0,1-1.56,1,4.51,4.51,0,0,1-1.61.28,3.13,3.13,0,0,1-2.18-.68,2.19,2.19,0,0,1-.77-1.72,2.29,2.29,0,0,1,.29-1.13,2.4,2.4,0,0,1,.76-.82,3.86,3.86,0,0,1,1.05-.47,11.75,11.75,0,0,1,1.3-.21,14,14,0,0,0,2.6-.49c0-.2,0-.32,0-.37a1.55,1.55,0,0,0-.42-1.23,2.47,2.47,0,0,0-1.66-.48,2.66,2.66,0,0,0-1.52.35,2.13,2.13,0,0,0-.73,1.25L130.65,43a3.19,3.19,0,0,1,.64-1.44,2.66,2.66,0,0,1,1.29-.85,5.79,5.79,0,0,1,1.95-.3,5.2,5.2,0,0,1,1.79.25,2.49,2.49,0,0,1,1,.64,2.13,2.13,0,0,1,.45,1,7.43,7.43,0,0,1,.08,1.31v1.9A20.25,20.25,0,0,0,138,48a2.94,2.94,0,0,0,.37,1H136.8A2.89,2.89,0,0,1,136.51,47.94Zm-.12-3.18a10.07,10.07,0,0,1-2.39.54,5.1,5.1,0,0,0-1.27.29,1.2,1.2,0,0,0-.57.46,1.16,1.16,0,0,0-.21.68,1.19,1.19,0,0,0,.44.94,1.92,1.92,0,0,0,1.3.38,3,3,0,0,0,1.5-.36,2.12,2.12,0,0,0,1-1,3.3,3.3,0,0,0,.24-1.42Z"/><path class="cls-3" d="M31.1,33.81l-.48,0c-.51,0-1,0-1.49,0h-.7l-.39,0-.43,0a2.85,2.85,0,0,0-.29,0h-.1l-.36.05-.12,0-.32.05-.37.07-.48.1-.47.11-1,.26-.42.14-.43.15-.49.18-.32.13-.11,0-.33.14,0,0-.36.16A19.86,19.86,0,0,0,19.11,37l-.27.17-.19.13-.34.24c-.17.11-.33.23-.49.35l-.21.16q-.57.44-1.08.87l-.19.17-.31.28-.24.22-.45.43-.58.58c-.17.17-.32.33-.47.5l-.34.37-.17.19a1.46,1.46,0,0,1-.16.19l-.15.19-.15.18c-.05,0-.09.11-.14.17l-.25.32h0c-.16.2-.3.4-.43.57l0,0-.09.13a.62.62,0,0,1-.09.12c-.08.12-.15.22-.2.31h0V34.74a21,21,0,0,1,18-8l.05.36.17,1.18Z"/><path class="cls-4" d="M43.76,28.5V38.65c-.87.81-4.48,3.77-11.1,4.37h0l0-.29-.28-1.78-1-5.49v-.06A22.89,22.89,0,0,0,43.76,28.5Z"/><path class="cls-4" d="M32.34,40.94h-.48l-.12,0c-.25,0-.57.07-.95.14s-.61.11-1,.19l-.46.11-.39.1-.13,0-.39.11-.24.07c-.33.1-.67.21-1,.34l-.24.09c-.52.19-1.06.41-1.63.66l-.24.12-.5.23-.25.13h0l-.21.11c-.35.18-.69.36-1,.57a5,5,0,0,0-.54.31c-.36.21-.72.43-1.09.68l-.56.37c-.09.05-.18.12-.28.19l-.28.2-.57.42a1.86,1.86,0,0,0-.28.21l-.58.45a2.11,2.11,0,0,0-.23.19c-.5.41-1,.85-1.52,1.32l-.27.25,0,0-.3.27-.29.3a38.62,38.62,0,0,0-4,4.57h-.18V43.85h0c.05-.09.12-.19.2-.31a.62.62,0,0,0,.09-.12l.09-.13,0,0c.13-.17.27-.37.43-.57h0l.25-.32c.05-.06.09-.12.14-.17l.15-.18.15-.19c.06-.06.11-.13.16-.19l.17-.19c.11-.12.23-.24.34-.37s.3-.33.47-.5l.58-.58.45-.43.24-.22.31-.28.19-.17q.51-.43,1.08-.87l.21-.16c.16-.12.32-.24.49-.35l.34-.24.19-.13.27-.17a19.86,19.86,0,0,1,2.54-1.41l.36-.16,0,0,.33-.14.11,0,.32-.13.49-.18.43-.15.42-.14,1-.26.47-.11.48-.1.37-.07.32-.05.12,0,.36-.05h.1a2.85,2.85,0,0,1,.29,0l.43,0,.39,0h.7c.49,0,1,0,1.49,0l.48,0,.26,1.53v.11l.56,3.19.08.44Z"/><path class="cls-5" d="M33.45,48.06h0C33,48,28.33,47.41,22,53.76H12.25a38.62,38.62,0,0,1,4-4.57l.29-.3.3-.27,0,0,.27-.25c.51-.47,1-.91,1.52-1.32a2.11,2.11,0,0,1,.23-.19l.58-.45a1.86,1.86,0,0,1,.28-.21l.57-.42.28-.2c.1-.07.19-.14.28-.19l.56-.37c.37-.25.73-.47,1.09-.68a5,5,0,0,1,.54-.31c.35-.21.69-.39,1-.57l.21-.11h0l.25-.13.5-.23.24-.12c.57-.25,1.11-.47,1.63-.66l.24-.09c.35-.13.69-.24,1-.34l.24-.07.39-.11.13,0,.39-.1.46-.11c.35-.08.68-.14,1-.19s.7-.11.95-.14l.12,0h.48l.28,1.78,0,.29h0l.09.55Z"/><path class="cls-3" d="M43.76,19v9.5a22.89,22.89,0,0,1-12.39,6.89v0l-.26-1.53-.79-5.53a23.55,23.55,0,0,0,3.4-1.18A23,23,0,0,0,43.76,19Z"/><path class="cls-5" d="M43.76,38.65V47a30.93,30.93,0,0,1-9.91,3.49l-.43-2.43h0l-.7-4.49L32.66,43C39.28,42.42,42.89,39.46,43.76,38.65Z"/><polygon class="cls-1" points="16.27 46.27 15.08 46.15 14.61 47.23 14.35 46.09 13.16 45.98 14.19 45.38 13.92 44.25 14.82 45.02 15.85 44.42 15.38 45.49 16.27 46.27"/><polygon class="cls-1" points="19.39 43.45 18.2 43.34 17.73 44.41 17.46 43.27 16.27 43.17 17.3 42.57 17.04 41.43 17.94 42.2 18.96 41.61 18.49 42.67 19.39 43.45"/><polygon class="cls-1" points="23 40.85 21.81 40.74 21.34 41.81 21.07 40.67 19.89 40.57 20.91 39.97 20.65 38.84 21.55 39.6 22.57 39.01 22.1 40.08 23 40.85"/><polygon class="cls-1" points="26.92 39.06 25.74 38.95 25.26 40.02 25 38.88 23.81 38.77 24.84 38.18 24.58 37.04 25.48 37.81 26.5 37.22 26.03 38.29 26.92 39.06"/><polygon class="cls-1" points="31.1 38.31 29.91 38.2 29.43 39.27 29.17 38.13 27.98 38.02 29.01 37.43 28.75 36.29 29.64 37.06 30.67 36.47 30.2 37.54 31.1 38.31"/><polygon class="cls-1" points="34.42 39.29 33.23 39.18 32.75 40.25 32.49 39.12 32.02 39.08 31.94 38.64 32.33 38.41 32.07 37.27 32.97 38.05 33.99 37.45 33.52 38.52 34.42 39.29"/><polygon class="cls-1" points="38.4 38.24 37.21 38.14 36.74 39.21 36.48 38.07 35.28 37.96 36.31 37.37 36.05 36.23 36.95 37 37.98 36.4 37.5 37.48 38.4 38.24"/><polygon class="cls-1" points="42.21 36.54 41.02 36.43 40.55 37.5 40.28 36.36 39.09 36.26 40.12 35.66 39.86 34.52 40.76 35.3 41.79 34.7 41.31 35.77 42.21 36.54"/><rect class="cls-2" x="332.05" y="24.15" width="0.98" height="24.46"/><path class="cls-2" d="M210.29,33.63v-7h1.31l1.57,4.95c.14.46.25.81.31,1,.08-.25.19-.62.35-1.11l1.58-4.87h1.18v7h-.84V27.78l-1.92,5.85H213l-1.91-6v6Z"/><path class="cls-2" d="M217.9,27.63v-1h.81v1Zm0,6V28.57h.81v5.06Z"/><path class="cls-2" d="M220,33.63V28.57h.73v.72a1.69,1.69,0,0,1,1.52-.84,1.94,1.94,0,0,1,.8.17,1.25,1.25,0,0,1,.54.43,1.6,1.6,0,0,1,.25.63,5.11,5.11,0,0,1,.05.84v3.11H223V30.55a2.45,2.45,0,0,0-.1-.78.78.78,0,0,0-.33-.41,1,1,0,0,0-.57-.16,1.24,1.24,0,0,0-.89.35,1.73,1.73,0,0,0-.38,1.32v2.76Z"/><path class="cls-2" d="M225.09,27.63v-1h.81v1Zm0,6V28.57h.81v5.06Z"/><path class="cls-2" d="M226.81,32.12l.8-.13a1.16,1.16,0,0,0,.38.78,1.25,1.25,0,0,0,.86.27,1.23,1.23,0,0,0,.83-.24.74.74,0,0,0,.27-.57.52.52,0,0,0-.24-.45,3,3,0,0,0-.83-.29,7.4,7.4,0,0,1-1.24-.42,1.15,1.15,0,0,1-.52-.48,1.29,1.29,0,0,1-.18-.67,1.39,1.39,0,0,1,.55-1.11,1.62,1.62,0,0,1,.51-.25,2.28,2.28,0,0,1,.7-.11,2.5,2.5,0,0,1,1,.18,1.3,1.3,0,0,1,.63.46,1.84,1.84,0,0,1,.28.79l-.79.11a.94.94,0,0,0-.32-.61,1.06,1.06,0,0,0-.73-.22,1.23,1.23,0,0,0-.79.2.56.56,0,0,0-.24.45.47.47,0,0,0,.1.3.63.63,0,0,0,.31.23c.08,0,.32.11.71.22a9,9,0,0,1,1.2.4,1.2,1.2,0,0,1,.54.45,1.3,1.3,0,0,1,.19.73,1.46,1.46,0,0,1-.23.81,1.61,1.61,0,0,1-.69.59,2.31,2.31,0,0,1-1,.2,2.18,2.18,0,0,1-1.42-.4A2,2,0,0,1,226.81,32.12Z"/><path class="cls-2" d="M233.52,32.86l.11.76a2.33,2.33,0,0,1-.61.08,1.29,1.29,0,0,1-.68-.15.87.87,0,0,1-.35-.39,3.55,3.55,0,0,1-.09-1V29.24h-.6v-.67h.6V27.32l.8-.52v1.77h.82v.67h-.82v3a2,2,0,0,0,0,.47.32.32,0,0,0,.14.16.47.47,0,0,0,.28.07A1.86,1.86,0,0,0,233.52,32.86Z"/><path class="cls-2" d="M237.59,32l.84.11a2.17,2.17,0,0,1-.74,1.2,2.1,2.1,0,0,1-1.37.43,2.12,2.12,0,0,1-1.67-.68,2.82,2.82,0,0,1-.61-1.92,2.92,2.92,0,0,1,.62-2,2.06,2.06,0,0,1,1.62-.71,2,2,0,0,1,1.56.7,2.8,2.8,0,0,1,.61,1.94v.23h-3.57a2.06,2.06,0,0,0,.44,1.28,1.33,1.33,0,0,0,1,.44,1.18,1.18,0,0,0,.76-.25A1.69,1.69,0,0,0,237.59,32Zm-2.67-1.39h2.68a1.77,1.77,0,0,0-.31-.95,1.22,1.22,0,0,0-1-.5,1.25,1.25,0,0,0-.94.4A1.62,1.62,0,0,0,234.92,30.61Z"/><path class="cls-2" d="M239.44,33.63V28.57h.73v.77a1.92,1.92,0,0,1,.51-.71.86.86,0,0,1,.52-.18,1.61,1.61,0,0,1,.84.28l-.28.8a1.09,1.09,0,0,0-.6-.19.78.78,0,0,0-.48.17.91.91,0,0,0-.3.47,3.56,3.56,0,0,0-.13,1v2.65Z"/><path class="cls-2" d="M242.52,27.63v-1h.81v1Zm0,6V28.57h.81v5.06Z"/><path class="cls-2" d="M244.27,31.1A2.65,2.65,0,0,1,245,29a2.13,2.13,0,0,1,1.5-.57,2.06,2.06,0,0,1,1.61.69,2.68,2.68,0,0,1,.63,1.89,3.4,3.4,0,0,1-.28,1.53,1.9,1.9,0,0,1-.81.87,2.18,2.18,0,0,1-1.15.31,2.06,2.06,0,0,1-1.62-.68A2.78,2.78,0,0,1,244.27,31.1Zm.83,0a2.31,2.31,0,0,0,.4,1.46,1.27,1.27,0,0,0,1,.48,1.25,1.25,0,0,0,1-.49,2.32,2.32,0,0,0,.4-1.48,2.17,2.17,0,0,0-.41-1.42,1.24,1.24,0,0,0-1-.48,1.27,1.27,0,0,0-1,.48A2.26,2.26,0,0,0,245.1,31.1Z"/><path class="cls-2" d="M255.37,33.63V33a1.47,1.47,0,0,1-1.34.75,1.81,1.81,0,0,1-1.05-.33,2.09,2.09,0,0,1-.74-.93A3.33,3.33,0,0,1,252,31.1a3.75,3.75,0,0,1,.24-1.37,2,2,0,0,1,.72-.95,1.83,1.83,0,0,1,1.07-.33,1.55,1.55,0,0,1,.77.2,1.63,1.63,0,0,1,.54.5V26.64h.81v7Zm-2.56-2.53a2.36,2.36,0,0,0,.38,1.46,1.18,1.18,0,0,0,.92.48,1.1,1.1,0,0,0,.9-.46,2.21,2.21,0,0,0,.37-1.4,2.44,2.44,0,0,0-.38-1.53,1.14,1.14,0,0,0-.93-.48,1.09,1.09,0,0,0-.9.46A2.43,2.43,0,0,0,252.81,31.1Z"/><path class="cls-2" d="M260.67,32l.85.11a2.17,2.17,0,0,1-.74,1.2,2.39,2.39,0,0,1-3-.25,2.82,2.82,0,0,1-.61-1.92,2.92,2.92,0,0,1,.62-2,2.06,2.06,0,0,1,1.62-.71,2,2,0,0,1,1.56.7,2.8,2.8,0,0,1,.61,1.94v.23H258a2,2,0,0,0,.44,1.28,1.31,1.31,0,0,0,1,.44,1.16,1.16,0,0,0,.76-.25A1.55,1.55,0,0,0,260.67,32ZM258,30.61h2.67a1.7,1.7,0,0,0-.3-.95,1.22,1.22,0,0,0-1-.5,1.25,1.25,0,0,0-.94.4A1.62,1.62,0,0,0,258,30.61Z"/><path class="cls-2" d="M262.51,33.63v-7h.82v7Z"/><path class="cls-2" d="M267.25,33.63v-7h2.49a6.14,6.14,0,0,1,1,.07,2,2,0,0,1,.81.33,1.63,1.63,0,0,1,.53.67,2.17,2.17,0,0,1,.2,1,2.24,2.24,0,0,1-.53,1.5,2.47,2.47,0,0,1-1.94.62h-1.69v2.84Zm.88-3.66h1.7a1.72,1.72,0,0,0,1.21-.34,1.23,1.23,0,0,0,.35-.93,1.33,1.33,0,0,0-.21-.76,1,1,0,0,0-.55-.41,3.69,3.69,0,0,0-.82-.06h-1.68Z"/><path class="cls-2" d="M273,31.1a2.69,2.69,0,0,1,.74-2.08,2.15,2.15,0,0,1,1.51-.57,2.07,2.07,0,0,1,1.61.69,2.68,2.68,0,0,1,.63,1.89,3.54,3.54,0,0,1-.28,1.53,2,2,0,0,1-.81.87,2.21,2.21,0,0,1-1.15.31,2.08,2.08,0,0,1-1.63-.68A2.83,2.83,0,0,1,273,31.1Zm.83,0a2.25,2.25,0,0,0,.41,1.46,1.26,1.26,0,0,0,1,.48,1.24,1.24,0,0,0,1-.49,2.26,2.26,0,0,0,.4-1.48,2.17,2.17,0,0,0-.4-1.42,1.29,1.29,0,0,0-2,0A2.2,2.2,0,0,0,273.83,31.1Z"/><path class="cls-2" d="M281.54,33.63V33a1.47,1.47,0,0,1-1.34.75,1.81,1.81,0,0,1-1.05-.33,2.09,2.09,0,0,1-.74-.93,3.33,3.33,0,0,1-.27-1.38,3.56,3.56,0,0,1,.25-1.37,1.92,1.92,0,0,1,.71-.95,1.85,1.85,0,0,1,1.07-.33,1.52,1.52,0,0,1,.77.2,1.76,1.76,0,0,1,.55.5V26.64h.81v7ZM279,31.1a2.29,2.29,0,0,0,.39,1.46,1.12,1.12,0,0,0,1.82,0,2.27,2.27,0,0,0,.37-1.4,2.51,2.51,0,0,0-.38-1.53,1.16,1.16,0,0,0-.94-.48,1.09,1.09,0,0,0-.9.46A2.43,2.43,0,0,0,279,31.1Z"/><path class="cls-2" d="M286.85,32l.84.11a2.17,2.17,0,0,1-.74,1.2,2.1,2.1,0,0,1-1.37.43,2.14,2.14,0,0,1-1.67-.68,2.82,2.82,0,0,1-.61-1.92,2.92,2.92,0,0,1,.62-2,2.08,2.08,0,0,1,1.62-.71,2,2,0,0,1,1.56.7,2.8,2.8,0,0,1,.61,1.94v.23h-3.57a2.06,2.06,0,0,0,.44,1.28,1.31,1.31,0,0,0,1,.44,1.19,1.19,0,0,0,.77-.25A1.69,1.69,0,0,0,286.85,32Zm-2.66-1.39h2.67a1.77,1.77,0,0,0-.31-.95,1.28,1.28,0,0,0-1.94-.1A1.52,1.52,0,0,0,284.19,30.61Z"/><path class="cls-2" d="M288.7,33.63V28.57h.72v.77a2,2,0,0,1,.52-.71.84.84,0,0,1,.52-.18,1.55,1.55,0,0,1,.83.28l-.28.8a1,1,0,0,0-.59-.19.76.76,0,0,0-.48.17.91.91,0,0,0-.3.47,3.55,3.55,0,0,0-.14,1v2.65Z"/><path class="cls-2" d="M294.45,33.63v-7h2.49a6,6,0,0,1,1,.07,2,2,0,0,1,.82.33,1.63,1.63,0,0,1,.53.67,2.32,2.32,0,0,1,.2,1,2.19,2.19,0,0,1-.54,1.5,2.43,2.43,0,0,1-1.93.62h-1.7v2.84Zm.87-3.66H297a1.7,1.7,0,0,0,1.2-.34,1.2,1.2,0,0,0,.36-.93,1.33,1.33,0,0,0-.21-.76,1.06,1.06,0,0,0-.55-.41,3.69,3.69,0,0,0-.82-.06h-1.69Z"/><path class="cls-2" d="M300.19,31.1a2.66,2.66,0,0,1,.75-2.08,2.13,2.13,0,0,1,1.5-.57,2.06,2.06,0,0,1,1.61.69,2.68,2.68,0,0,1,.63,1.89,3.4,3.4,0,0,1-.28,1.53,1.93,1.93,0,0,1-.8.87,2.22,2.22,0,0,1-1.16.31,2.06,2.06,0,0,1-1.62-.68A2.78,2.78,0,0,1,300.19,31.1Zm.84,0a2.25,2.25,0,0,0,.4,1.46,1.26,1.26,0,0,0,1,.48,1.24,1.24,0,0,0,1-.49,2.25,2.25,0,0,0,.41-1.48,2.17,2.17,0,0,0-.41-1.42,1.29,1.29,0,0,0-2,0A2.2,2.2,0,0,0,301,31.1Z"/><path class="cls-2" d="M305.63,35.57v-7h.74v.66a1.81,1.81,0,0,1,.59-.58,1.56,1.56,0,0,1,.8-.2,1.83,1.83,0,0,1,1.08.34,2.07,2.07,0,0,1,.71.94,3.61,3.61,0,0,1,.24,1.33,3.46,3.46,0,0,1-.27,1.4,2.1,2.1,0,0,1-.76,1,2,2,0,0,1-1.06.32,1.6,1.6,0,0,1-.73-.17,2,2,0,0,1-.53-.46v2.46Zm.73-4.44a2.27,2.27,0,0,0,.38,1.44,1.13,1.13,0,0,0,.9.47,1.15,1.15,0,0,0,.93-.48,2.38,2.38,0,0,0,.38-1.5,2.33,2.33,0,0,0-.37-1.45,1.11,1.11,0,0,0-.9-.48,1.17,1.17,0,0,0-.92.51A2.43,2.43,0,0,0,306.36,31.13Z"/><path class="cls-2" d="M313.9,33.63v-.74a1.72,1.72,0,0,1-1.52.85,1.78,1.78,0,0,1-.79-.17,1.32,1.32,0,0,1-.54-.43,1.49,1.49,0,0,1-.25-.63,3.86,3.86,0,0,1-.06-.8V28.57h.82v2.81a4.51,4.51,0,0,0,.05.9.87.87,0,0,0,.32.53,1,1,0,0,0,.61.2,1.29,1.29,0,0,0,.69-.2,1.08,1.08,0,0,0,.45-.54,2.81,2.81,0,0,0,.14-1V28.57h.8v5.06Z"/><path class="cls-2" d="M315.88,33.63v-7h.81v7Z"/><path class="cls-2" d="M321.07,33a2.94,2.94,0,0,1-.87.57,2.38,2.38,0,0,1-.89.16,1.67,1.67,0,0,1-1.21-.4,1.36,1.36,0,0,1-.43-1,1.4,1.4,0,0,1,.17-.68,1.24,1.24,0,0,1,.41-.49,1.81,1.81,0,0,1,.59-.29c.16,0,.4-.08.71-.13a7.23,7.23,0,0,0,1.45-.29c0-.12,0-.19,0-.23a1,1,0,0,0-.23-.73,1.3,1.3,0,0,0-.93-.29,1.37,1.37,0,0,0-.84.21,1.33,1.33,0,0,0-.41.75l-.79-.12a2.1,2.1,0,0,1,.36-.87,1.52,1.52,0,0,1,.72-.51,2.94,2.94,0,0,1,1.08-.18,2.75,2.75,0,0,1,1,.16,1.35,1.35,0,0,1,.56.38,1.44,1.44,0,0,1,.25.59,4.71,4.71,0,0,1,0,.79v1.14a14.07,14.07,0,0,0,.05,1.51,2.21,2.21,0,0,0,.21.61h-.85A2.16,2.16,0,0,1,321.07,33ZM321,31.09a5.93,5.93,0,0,1-1.32.33,2.27,2.27,0,0,0-.71.17.71.71,0,0,0-.32.27.84.84,0,0,0-.11.41.75.75,0,0,0,.24.57,1,1,0,0,0,.72.23,1.69,1.69,0,0,0,.84-.21,1.34,1.34,0,0,0,.53-.6,2.12,2.12,0,0,0,.13-.86Z"/><path class="cls-2" d="M323.07,33.63V28.57h.73v.77a2,2,0,0,1,.52-.71.84.84,0,0,1,.52-.18,1.55,1.55,0,0,1,.83.28l-.28.8a1.06,1.06,0,0,0-.59-.19.76.76,0,0,0-.48.17.91.91,0,0,0-.3.47,3.55,3.55,0,0,0-.14,1v2.65Z"/><path class="cls-2" d="M210.9,44.52V38.06h.75v.61a1.89,1.89,0,0,1,.6-.54,1.8,1.8,0,0,1,.81-.17,2,2,0,0,1,1.1.3,2,2,0,0,1,.71.87,2.94,2.94,0,0,1,.25,1.23,3,3,0,0,1-.27,1.29,2,2,0,0,1-.78.88,2.06,2.06,0,0,1-1.07.3,1.64,1.64,0,0,1-.74-.16,1.59,1.59,0,0,1-.53-.42v2.27Zm.75-4.1a1.92,1.92,0,0,0,.38,1.33,1.17,1.17,0,0,0,.92.43,1.18,1.18,0,0,0,.93-.44,2,2,0,0,0,.4-1.38,2,2,0,0,0-.39-1.34,1.13,1.13,0,0,0-.91-.44,1.18,1.18,0,0,0-.93.47A2,2,0,0,0,211.65,40.42Z"/><path class="cls-2" d="M219.27,42.15a2.86,2.86,0,0,1-.88.53,2.66,2.66,0,0,1-.9.15,1.79,1.79,0,0,1-1.23-.37,1.21,1.21,0,0,1-.43-1,1.25,1.25,0,0,1,.59-1.08,1.86,1.86,0,0,1,.59-.26,6.43,6.43,0,0,1,.73-.12,9,9,0,0,0,1.47-.27v-.21a.87.87,0,0,0-.23-.68,1.42,1.42,0,0,0-.94-.27,1.52,1.52,0,0,0-.86.2,1.21,1.21,0,0,0-.41.69l-.8-.11a1.79,1.79,0,0,1,.36-.8,1.62,1.62,0,0,1,.73-.47,3.35,3.35,0,0,1,1.1-.16,2.89,2.89,0,0,1,1,.14,1.3,1.3,0,0,1,.57.35A1.24,1.24,0,0,1,220,39a5.29,5.29,0,0,1,0,.73v1.05a10.14,10.14,0,0,0,.05,1.4,1.53,1.53,0,0,0,.21.56h-.86A1.71,1.71,0,0,1,219.27,42.15Zm-.06-1.76a7.37,7.37,0,0,1-1.35.3,3.17,3.17,0,0,0-.71.15.73.73,0,0,0-.33.26.63.63,0,0,0-.11.38A.64.64,0,0,0,217,42a1.07,1.07,0,0,0,.72.21,1.7,1.7,0,0,0,.85-.2,1.18,1.18,0,0,0,.54-.54,1.8,1.8,0,0,0,.14-.79Z"/><path class="cls-2" d="M221.3,42.73V38.06H222v.71a2.05,2.05,0,0,1,.53-.66,1,1,0,0,1,.52-.15,1.66,1.66,0,0,1,.85.25l-.28.74a1.19,1.19,0,0,0-.61-.18.81.81,0,0,0-.48.16.86.86,0,0,0-.31.43,3,3,0,0,0-.13.93v2.44Z"/><path class="cls-2" d="M227.59,42.15a3,3,0,0,1-.87.53,2.76,2.76,0,0,1-.91.15,1.83,1.83,0,0,1-1.23-.37,1.21,1.21,0,0,1-.43-1,1.25,1.25,0,0,1,.59-1.08,1.86,1.86,0,0,1,.59-.26,6.43,6.43,0,0,1,.73-.12,9,9,0,0,0,1.47-.27v-.21a.87.87,0,0,0-.23-.68,1.41,1.41,0,0,0-.94-.27,1.52,1.52,0,0,0-.86.2,1.16,1.16,0,0,0-.4.69l-.81-.11a1.79,1.79,0,0,1,.36-.8,1.62,1.62,0,0,1,.73-.47,3.35,3.35,0,0,1,1.1-.16,2.89,2.89,0,0,1,1,.14,1.3,1.3,0,0,1,.57.35,1.24,1.24,0,0,1,.26.54,5.29,5.29,0,0,1,0,.73v1.05a12.19,12.19,0,0,0,0,1.4,1.74,1.74,0,0,0,.21.56h-.86A1.71,1.71,0,0,1,227.59,42.15Zm-.06-1.76a7.37,7.37,0,0,1-1.35.3,3.31,3.31,0,0,0-.71.15.78.78,0,0,0-.33.26.63.63,0,0,0-.11.38.64.64,0,0,0,.25.52,1.09,1.09,0,0,0,.72.21,1.7,1.7,0,0,0,.85-.2,1.18,1.18,0,0,0,.54-.54,1.8,1.8,0,0,0,.14-.79Z"/><path class="cls-2" d="M235.55,41.23l.85.1a2,2,0,0,1-.74,1.11,2.33,2.33,0,0,1-1.39.39,2.28,2.28,0,0,1-1.69-.63,2.42,2.42,0,0,1-.62-1.76,2.51,2.51,0,0,1,.63-1.83,2.35,2.35,0,0,1,3.22,0,2.46,2.46,0,0,1,.62,1.8v.21h-3.62a1.78,1.78,0,0,0,.45,1.18,1.37,1.37,0,0,0,1,.4,1.33,1.33,0,0,0,.78-.22A1.56,1.56,0,0,0,235.55,41.23ZM232.85,40h2.71a1.51,1.51,0,0,0-.31-.89,1.29,1.29,0,0,0-1-.45,1.36,1.36,0,0,0-.95.36A1.42,1.42,0,0,0,232.85,40Z"/><path class="cls-2" d="M237.42,42.73V36.29h.82v6.44Z"/><path class="cls-2" d="M243.69,42.73V37.38h-2V36.29H247v1.09h-2v5.35Z"/><path class="cls-2" d="M248.6,42.73h-1.28V38.06h1.19v.67a1.94,1.94,0,0,1,.55-.62,1,1,0,0,1,.55-.15,1.62,1.62,0,0,1,.85.23l-.4,1.08a1.09,1.09,0,0,0-.6-.21.73.73,0,0,0-.46.15.94.94,0,0,0-.29.51,7.14,7.14,0,0,0-.11,1.57Z"/><path class="cls-2" d="M252,39.49l-1.16-.21a1.74,1.74,0,0,1,.67-1,2.55,2.55,0,0,1,1.43-.32,3.22,3.22,0,0,1,1.28.19,1.24,1.24,0,0,1,.59.5,2.52,2.52,0,0,1,.17,1.1V41.2a4.82,4.82,0,0,0,.06.9,2.55,2.55,0,0,0,.23.63H254c0-.08-.07-.2-.12-.37s0-.12-.05-.14a2.35,2.35,0,0,1-.7.46,2.15,2.15,0,0,1-.8.15,1.68,1.68,0,0,1-1.18-.39,1.28,1.28,0,0,1-.44-1,1.3,1.3,0,0,1,.2-.7,1.29,1.29,0,0,1,.55-.48,4.49,4.49,0,0,1,1-.28,6.67,6.67,0,0,0,1.25-.31v-.12a.63.63,0,0,0-.18-.51,1.13,1.13,0,0,0-.69-.15.94.94,0,0,0-.54.13A.91.91,0,0,0,252,39.49Zm1.72,1c-.16,0-.42.11-.78.19a2.34,2.34,0,0,0-.7.21.51.51,0,0,0-.25.44.62.62,0,0,0,.2.45.72.72,0,0,0,.51.18,1.11,1.11,0,0,0,.66-.22.75.75,0,0,0,.31-.4,2.61,2.61,0,0,0,.05-.61Z"/><path class="cls-2" d="M260.63,42.73h-1.28V40.35a3.25,3.25,0,0,0-.09-1A.71.71,0,0,0,259,39a.82.82,0,0,0-.45-.12,1.06,1.06,0,0,0-.6.18.91.91,0,0,0-.36.46,3.74,3.74,0,0,0-.1,1.08v2.11h-1.28V38.06h1.19v.69A2,2,0,0,1,259,38a2.21,2.21,0,0,1,.78.14,1.37,1.37,0,0,1,.53.38,1.32,1.32,0,0,1,.25.52,3.54,3.54,0,0,1,.07.83Z"/><path class="cls-2" d="M261.48,41.4l1.29-.19a.94.94,0,0,0,.33.55,1.22,1.22,0,0,0,.71.18,1.39,1.39,0,0,0,.75-.17.42.42,0,0,0,.17-.33.35.35,0,0,0-.1-.24,1.12,1.12,0,0,0-.43-.16,7.33,7.33,0,0,1-2-.6,1.19,1.19,0,0,1-.57-1,1.28,1.28,0,0,1,.5-1A2.34,2.34,0,0,1,263.7,38a2.74,2.74,0,0,1,1.48.31,1.6,1.6,0,0,1,.67.92l-1.21.22a.72.72,0,0,0-.3-.42,1.07,1.07,0,0,0-.62-.15A1.42,1.42,0,0,0,263,39a.29.29,0,0,0-.15.25.28.28,0,0,0,.13.23,5.41,5.41,0,0,0,1.2.34,3.61,3.61,0,0,1,1.43.55,1.12,1.12,0,0,1,.4.92,1.37,1.37,0,0,1-.55,1.1,2.55,2.55,0,0,1-1.65.46,2.76,2.76,0,0,1-1.57-.38A1.79,1.79,0,0,1,261.48,41.4Z"/><path class="cls-2" d="M267.1,38.06h1.2v.69a1.58,1.58,0,0,1,.63-.57,1.74,1.74,0,0,1,.88-.22,1.92,1.92,0,0,1,1.44.63,2.55,2.55,0,0,1,.59,1.78,2.59,2.59,0,0,1-.6,1.82,1.86,1.86,0,0,1-1.44.64,1.73,1.73,0,0,1-.73-.15,2.47,2.47,0,0,1-.68-.53V44.5H267.1Zm1.27,2.26a1.73,1.73,0,0,0,.33,1.16,1,1,0,0,0,.79.37.93.93,0,0,0,.74-.34,1.72,1.72,0,0,0,.3-1.13,1.61,1.61,0,0,0-.31-1.09.94.94,0,0,0-.76-.36,1,1,0,0,0-.78.35A1.56,1.56,0,0,0,268.37,40.32Z"/><path class="cls-2" d="M272.56,40.33a2.43,2.43,0,0,1,.31-1.19,2.07,2.07,0,0,1,.9-.88,2.73,2.73,0,0,1,1.29-.3,2.5,2.5,0,0,1,1.8.68,2.5,2.5,0,0,1,0,3.5,2.45,2.45,0,0,1-1.78.69,2.85,2.85,0,0,1-1.28-.29,2,2,0,0,1-.92-.85A2.71,2.71,0,0,1,272.56,40.33Zm1.31.07a1.5,1.5,0,0,0,.35,1.06,1.08,1.08,0,0,0,.84.37,1.07,1.07,0,0,0,.84-.37,1.84,1.84,0,0,0,0-2.13,1.1,1.1,0,0,0-.84-.37,1.11,1.11,0,0,0-.84.37A1.51,1.51,0,0,0,273.87,40.4Z"/><path class="cls-2" d="M279.8,42.73h-1.28V38.06h1.19v.67a1.94,1.94,0,0,1,.55-.62,1,1,0,0,1,.55-.15,1.62,1.62,0,0,1,.85.23l-.4,1.08a1.14,1.14,0,0,0-.6-.21.73.73,0,0,0-.46.15.94.94,0,0,0-.29.51,7.14,7.14,0,0,0-.11,1.57Z"/><path class="cls-2" d="M284.44,38.06v1h-.88v1.88a3.67,3.67,0,0,0,0,.66.23.23,0,0,0,.11.16.38.38,0,0,0,.22.06,1.63,1.63,0,0,0,.51-.12l.11,1a2.67,2.67,0,0,1-1,.18,1.61,1.61,0,0,1-.63-.11.92.92,0,0,1-.41-.29,1.34,1.34,0,0,1-.18-.48,7,7,0,0,1,0-.87v-2h-.59v-1h.59v-.93l1.29-.72v1.65Z"/><path class="cls-2" d="M288.14,41.24l1.28.21a2.06,2.06,0,0,1-.78,1,2.33,2.33,0,0,1-1.33.35,2.22,2.22,0,0,1-1.88-.79,2.61,2.61,0,0,1-.48-1.61,2.53,2.53,0,0,1,.63-1.82,2.16,2.16,0,0,1,1.6-.65,2.23,2.23,0,0,1,1.71.68,3,3,0,0,1,.6,2.11h-3.22a1.23,1.23,0,0,0,.31.86,1,1,0,0,0,.74.3.8.8,0,0,0,.51-.16A1,1,0,0,0,288.14,41.24Zm.07-1.24a1.15,1.15,0,0,0-.29-.82.87.87,0,0,0-.66-.28.92.92,0,0,0-.7.3,1.12,1.12,0,0,0-.27.8Z"/><path class="cls-2" d="M340.74,33.78V27.49h.89v6.29Z"/><path class="cls-2" d="M343.1,33.78V29.22h.74v.65a1.8,1.8,0,0,1,1.55-.75,2.09,2.09,0,0,1,.81.15,1.27,1.27,0,0,1,.56.39,1.34,1.34,0,0,1,.25.57,3.3,3.3,0,0,1,.05.75v2.8h-.83V31a2.11,2.11,0,0,0-.09-.71.81.81,0,0,0-.34-.37,1.21,1.21,0,0,0-.58-.14,1.38,1.38,0,0,0-.91.31,1.48,1.48,0,0,0-.39,1.19v2.49Z"/><path class="cls-2" d="M348,32.42l.81-.12a1.07,1.07,0,0,0,.39.7,1.42,1.42,0,0,0,.88.25,1.36,1.36,0,0,0,.84-.22.63.63,0,0,0,.28-.51.46.46,0,0,0-.25-.41,3.31,3.31,0,0,0-.84-.26,9.28,9.28,0,0,1-1.26-.37,1.17,1.17,0,0,1-.53-.44,1.07,1.07,0,0,1-.18-.61,1.08,1.08,0,0,1,.14-.56,1.3,1.3,0,0,1,.41-.43,1.65,1.65,0,0,1,.53-.23,2.71,2.71,0,0,1,.71-.09,3.11,3.11,0,0,1,1,.15,1.49,1.49,0,0,1,.64.42,1.54,1.54,0,0,1,.28.71l-.8.1a.86.86,0,0,0-.32-.55,1.26,1.26,0,0,0-.75-.2,1.38,1.38,0,0,0-.81.18.53.53,0,0,0-.25.41.4.4,0,0,0,.11.27.68.68,0,0,0,.31.21l.73.2a11,11,0,0,1,1.23.35,1.26,1.26,0,0,1,.54.41,1.1,1.1,0,0,1,.2.66,1.25,1.25,0,0,1-.24.73,1.58,1.58,0,0,1-.7.52,2.59,2.59,0,0,1-1,.19,2.41,2.41,0,0,1-1.45-.37A1.67,1.67,0,0,1,348,32.42Z"/><path class="cls-2" d="M354.83,33.09l.12.68a3.79,3.79,0,0,1-.62.07,1.5,1.5,0,0,1-.7-.14.74.74,0,0,1-.35-.35,2.74,2.74,0,0,1-.1-.91V29.82h-.6v-.6h.6V28.09l.82-.46v1.59h.83v.6H354v2.67a1.14,1.14,0,0,0,.05.42.33.33,0,0,0,.14.15.55.55,0,0,0,.28.06Z"/><path class="cls-2" d="M355.65,28.38v-.89h.82v.89Zm0,5.4V29.22h.82v4.56Z"/><path class="cls-2" d="M359.54,33.09l.12.68a3.9,3.9,0,0,1-.63.07,1.5,1.5,0,0,1-.7-.14.74.74,0,0,1-.35-.35,2.74,2.74,0,0,1-.1-.91V29.82h-.6v-.6h.6V28.09l.83-.46v1.59h.83v.6h-.83v2.67a1.23,1.23,0,0,0,0,.42.4.4,0,0,0,.14.15.55.55,0,0,0,.28.06Z"/><path class="cls-2" d="M363.54,33.78v-.67a1.83,1.83,0,0,1-1.55.77,2.15,2.15,0,0,1-.8-.15,1.46,1.46,0,0,1-.56-.39,1.48,1.48,0,0,1-.25-.57,3.37,3.37,0,0,1-.05-.73V29.22h.82v2.53a4.52,4.52,0,0,0,.05.81.84.84,0,0,0,.33.48,1.07,1.07,0,0,0,.63.18,1.43,1.43,0,0,0,.7-.18,1,1,0,0,0,.46-.49,2.29,2.29,0,0,0,.13-.89V29.22h.83v4.56Z"/><path class="cls-2" d="M367.38,33.09l.12.68a3.79,3.79,0,0,1-.63.07,1.42,1.42,0,0,1-.69-.14.7.7,0,0,1-.35-.35,2.49,2.49,0,0,1-.1-.91V29.82h-.61v-.6h.61V28.09l.82-.46v1.59h.83v.6h-.83v2.67a1.23,1.23,0,0,0,0,.42.4.4,0,0,0,.14.15.57.57,0,0,0,.29.06Z"/><path class="cls-2" d="M367.88,31.5a2.26,2.26,0,0,1,.75-1.87,2.36,2.36,0,0,1,1.54-.51,2.17,2.17,0,0,1,2.28,2.32,3,3,0,0,1-.28,1.38,2,2,0,0,1-.83.78,2.46,2.46,0,0,1-1.17.28,2.27,2.27,0,0,1-1.66-.61A2.36,2.36,0,0,1,367.88,31.5Zm.85,0a1.87,1.87,0,0,0,.41,1.31,1.41,1.41,0,0,0,2.05,0,1.92,1.92,0,0,0,.41-1.34,1.82,1.82,0,0,0-.41-1.28,1.36,1.36,0,0,0-1-.43,1.34,1.34,0,0,0-1,.43A1.87,1.87,0,0,0,368.73,31.5Z"/><path class="cls-2" d="M376.13,33.78V27.49H377l3.54,4.94V27.49h.85v6.29h-.91L377,28.84v4.94Z"/><path class="cls-2" d="M386,33.22a3.11,3.11,0,0,1-.88.51,2.71,2.71,0,0,1-.91.15,1.84,1.84,0,0,1-1.24-.37,1.18,1.18,0,0,1-.43-.93,1.14,1.14,0,0,1,.17-.61,1.21,1.21,0,0,1,.42-.45,2.3,2.3,0,0,1,.6-.25,6.43,6.43,0,0,1,.73-.12,8.13,8.13,0,0,0,1.48-.26v-.2a.85.85,0,0,0-.23-.67,1.51,1.51,0,0,0-.95-.26,1.54,1.54,0,0,0-.86.19,1.19,1.19,0,0,0-.41.67l-.81-.1a1.89,1.89,0,0,1,.37-.78,1.61,1.61,0,0,1,.73-.46,3.35,3.35,0,0,1,1.1-.16,3.17,3.17,0,0,1,1,.14,1.29,1.29,0,0,1,.57.34,1.26,1.26,0,0,1,.26.53,3.85,3.85,0,0,1,0,.71v1a11.44,11.44,0,0,0,.05,1.36,2,2,0,0,0,.21.55h-.86A1.6,1.6,0,0,1,386,33.22Zm-.06-1.73a6.09,6.09,0,0,1-1.35.29,3.58,3.58,0,0,0-.73.16.62.62,0,0,0-.32.25.61.61,0,0,0-.12.37.66.66,0,0,0,.25.51,1.14,1.14,0,0,0,.74.21,1.84,1.84,0,0,0,.85-.2,1.26,1.26,0,0,0,.54-.53,1.78,1.78,0,0,0,.14-.78Z"/><path class="cls-2" d="M391.23,32.11l.82.1a2,2,0,0,1-.68,1.23,2.12,2.12,0,0,1-1.35.44,2.15,2.15,0,0,1-1.61-.61,2.36,2.36,0,0,1-.61-1.75,3.06,3.06,0,0,1,.26-1.29,1.74,1.74,0,0,1,.8-.83,2.4,2.4,0,0,1,1.16-.28,2.07,2.07,0,0,1,1.3.38,1.7,1.7,0,0,1,.65,1.06l-.8.12a1.24,1.24,0,0,0-.41-.69,1.09,1.09,0,0,0-.71-.24,1.32,1.32,0,0,0-1,.42,1.9,1.9,0,0,0-.39,1.33,1.91,1.91,0,0,0,.38,1.33,1.33,1.33,0,0,0,1.79.14A1.3,1.3,0,0,0,391.23,32.11Z"/><path class="cls-2" d="M392.76,28.38v-.89h.83v.89Zm0,5.4V29.22h.83v4.56Z"/><path class="cls-2" d="M394.54,31.5a2.26,2.26,0,0,1,.75-1.87,2.35,2.35,0,0,1,1.53-.51,2.15,2.15,0,0,1,2.28,2.32,2.84,2.84,0,0,1-.28,1.38,1.93,1.93,0,0,1-.82.78,2.48,2.48,0,0,1-1.18.28,2.26,2.26,0,0,1-1.65-.61A2.36,2.36,0,0,1,394.54,31.5Zm.84,0a1.87,1.87,0,0,0,.41,1.31,1.43,1.43,0,0,0,2.06,0,1.92,1.92,0,0,0,.4-1.34,1.78,1.78,0,0,0-.41-1.28,1.33,1.33,0,0,0-1-.43,1.37,1.37,0,0,0-1,.43A1.87,1.87,0,0,0,395.38,31.5Z"/><path class="cls-2" d="M400.07,33.78V29.22h.75v.65a1.79,1.79,0,0,1,1.55-.75,2.16,2.16,0,0,1,.81.15,1.24,1.24,0,0,1,.55.39,1.36,1.36,0,0,1,.26.57A4,4,0,0,1,404,31v2.8h-.83V31a1.84,1.84,0,0,0-.1-.71.71.71,0,0,0-.34-.37,1.16,1.16,0,0,0-.58-.14,1.39,1.39,0,0,0-.91.31,1.51,1.51,0,0,0-.38,1.19v2.49Z"/><path class="cls-2" d="M408.49,33.22a3.3,3.3,0,0,1-.89.51,2.71,2.71,0,0,1-.91.15,1.79,1.79,0,0,1-1.23-.37,1.16,1.16,0,0,1-.44-.93,1.14,1.14,0,0,1,.17-.61,1.21,1.21,0,0,1,.42-.45,2.3,2.3,0,0,1,.6-.25,6.85,6.85,0,0,1,.73-.12,8.13,8.13,0,0,0,1.48-.26v-.2a.85.85,0,0,0-.23-.67,1.48,1.48,0,0,0-.94-.26,1.56,1.56,0,0,0-.87.19,1.19,1.19,0,0,0-.41.67l-.8-.1a1.76,1.76,0,0,1,.36-.78,1.61,1.61,0,0,1,.73-.46,3.42,3.42,0,0,1,1.11-.16,3.15,3.15,0,0,1,1,.14,1.29,1.29,0,0,1,.57.34,1.15,1.15,0,0,1,.26.53,3.85,3.85,0,0,1,0,.71v1a9,9,0,0,0,.06,1.36,1.66,1.66,0,0,0,.2.55h-.86A1.59,1.59,0,0,1,408.49,33.22Zm-.07-1.73a6.09,6.09,0,0,1-1.35.29,3.29,3.29,0,0,0-.72.16.7.7,0,0,0-.33.25.61.61,0,0,0-.12.37.64.64,0,0,0,.26.51,1.1,1.1,0,0,0,.73.21,1.81,1.81,0,0,0,.85-.2,1.2,1.2,0,0,0,.54-.53,1.78,1.78,0,0,0,.14-.78Z"/><path class="cls-2" d="M410.52,33.78V27.49h.82v6.29Z"/><path class="cls-2" d="M343.65,43.21v-.58a1.55,1.55,0,0,1-1.36.68,2,2,0,0,1-1.08-.3,2,2,0,0,1-.75-.84,2.73,2.73,0,0,1-.27-1.24,3.07,3.07,0,0,1,.24-1.23,1.87,1.87,0,0,1,.73-.86,2.11,2.11,0,0,1,1.09-.29,1.79,1.79,0,0,1,.78.17,1.69,1.69,0,0,1,.56.45V36.92h.83v6.29ZM341,40.93a1.9,1.9,0,0,0,.39,1.31,1.2,1.2,0,0,0,.93.43,1.18,1.18,0,0,0,.92-.41,1.79,1.79,0,0,0,.38-1.26,2.11,2.11,0,0,0-.38-1.38,1.23,1.23,0,0,0-.95-.43,1.16,1.16,0,0,0-.92.42A2,2,0,0,0,341,40.93Z"/><path class="cls-2" d="M349.05,41.74l.86.1a2,2,0,0,1-.75,1.08,2.36,2.36,0,0,1-1.4.39A2.16,2.16,0,0,1,345.44,41a2.44,2.44,0,0,1,.63-1.79,2.25,2.25,0,0,1,1.65-.63,2.16,2.16,0,0,1,1.59.62,2.34,2.34,0,0,1,.63,1.75s0,.11,0,.21h-3.64a1.66,1.66,0,0,0,.46,1.14,1.38,1.38,0,0,0,1,.4,1.29,1.29,0,0,0,.77-.22A1.44,1.44,0,0,0,349.05,41.74Zm-2.71-1.25h2.72a1.44,1.44,0,0,0-.31-.86,1.29,1.29,0,0,0-1-.45,1.35,1.35,0,0,0-1.39,1.31Z"/><path class="cls-2" d="M353.54,43.21V36.92h.83v6.29Z"/><path class="cls-2" d="M355.34,40.93a2.29,2.29,0,0,1,.75-1.88,2.41,2.41,0,0,1,1.54-.5,2.27,2.27,0,0,1,1.64.61,2.24,2.24,0,0,1,.64,1.7,3,3,0,0,1-.28,1.39,2,2,0,0,1-.83.78,2.46,2.46,0,0,1-1.17.28A2.31,2.31,0,0,1,356,42.7,2.36,2.36,0,0,1,355.34,40.93Zm.85,0a1.87,1.87,0,0,0,.41,1.31,1.44,1.44,0,0,0,2,0,1.94,1.94,0,0,0,.41-1.34,1.82,1.82,0,0,0-.41-1.28,1.36,1.36,0,0,0-1-.43,1.34,1.34,0,0,0-1,.43A1.85,1.85,0,0,0,356.19,40.93Z"/><path class="cls-2" d="M360.55,41.85l.81-.12a1.07,1.07,0,0,0,.39.7,1.42,1.42,0,0,0,.88.24,1.37,1.37,0,0,0,.84-.21.64.64,0,0,0,.28-.51.45.45,0,0,0-.25-.41,3.31,3.31,0,0,0-.84-.26,7.73,7.73,0,0,1-1.26-.38,1.14,1.14,0,0,1-.57-1.6,1.21,1.21,0,0,1,.41-.43,1.65,1.65,0,0,1,.53-.23,2.71,2.71,0,0,1,.71-.09,3.11,3.11,0,0,1,1,.15,1.4,1.4,0,0,1,.64.42,1.54,1.54,0,0,1,.28.71l-.8.1a.84.84,0,0,0-.32-.55,1.26,1.26,0,0,0-.75-.2,1.38,1.38,0,0,0-.81.18.49.49,0,0,0-.25.41.4.4,0,0,0,.11.27.76.76,0,0,0,.31.21l.73.19c.59.15,1,.27,1.23.36a1.18,1.18,0,0,1,.54.41,1.06,1.06,0,0,1,.2.66,1.22,1.22,0,0,1-.24.72,1.52,1.52,0,0,1-.7.53,2.59,2.59,0,0,1-1,.19,2.41,2.41,0,0,1-1.45-.37A1.69,1.69,0,0,1,360.55,41.85Z"/><path class="cls-2" d="M368.26,43.21V36.9h5V38h-3.64v1.4H373v1.06h-3.38v1.71h3.77v1.07Z"/><path class="cls-2" d="M374.09,41.9l1.3-.18a.84.84,0,0,0,.33.53,1.15,1.15,0,0,0,.71.19,1.28,1.28,0,0,0,.75-.18.35.35,0,0,0,.17-.32.32.32,0,0,0-.09-.23,1.19,1.19,0,0,0-.43-.16,7.55,7.55,0,0,1-2-.58,1.16,1.16,0,0,1-.58-1,1.22,1.22,0,0,1,.5-1,2.44,2.44,0,0,1,1.55-.4,3,3,0,0,1,1.5.3,1.65,1.65,0,0,1,.67.91l-1.22.21a.67.67,0,0,0-.3-.41,1.08,1.08,0,0,0-.62-.14,1.46,1.46,0,0,0-.73.13.27.27,0,0,0-.15.24.25.25,0,0,0,.13.22,4.71,4.71,0,0,0,1.21.34,3.86,3.86,0,0,1,1.44.54,1.07,1.07,0,0,1,.4.9,1.33,1.33,0,0,1-.56,1.08,2.61,2.61,0,0,1-1.66.45,2.88,2.88,0,0,1-1.58-.38A1.72,1.72,0,0,1,374.09,41.9Z"/><path class="cls-2" d="M379.75,38.64H381v.67a1.84,1.84,0,0,1,.64-.56,2,2,0,0,1,2.33.41,2.4,2.4,0,0,1,.6,1.74,2.46,2.46,0,0,1-.6,1.77,1.9,1.9,0,0,1-1.45.64,1.78,1.78,0,0,1-.74-.15,2.31,2.31,0,0,1-.69-.52v2.3h-1.29ZM381,40.85a1.69,1.69,0,0,0,.32,1.13,1,1,0,0,0,.8.37,1,1,0,0,0,.75-.34,1.63,1.63,0,0,0,.3-1.1,1.55,1.55,0,0,0-.31-1.07,1,1,0,0,0-.76-.35,1,1,0,0,0-.79.34A1.47,1.47,0,0,0,381,40.85Z"/><path class="cls-2" d="M386.51,40l-1.17-.19a1.73,1.73,0,0,1,.68-1,2.64,2.64,0,0,1,1.43-.31,3.24,3.24,0,0,1,1.29.19,1.36,1.36,0,0,1,.6.48,2.46,2.46,0,0,1,.17,1.09v1.41a4.65,4.65,0,0,0,.06.88,2.64,2.64,0,0,0,.23.62h-1.28l-.12-.36a.93.93,0,0,0-.05-.14,2.36,2.36,0,0,1-.71.45,2.15,2.15,0,0,1-.8.15,1.75,1.75,0,0,1-1.19-.38,1.29,1.29,0,0,1-.24-1.66,1.3,1.3,0,0,1,.56-.47,4.9,4.9,0,0,1,1-.28,7.05,7.05,0,0,0,1.26-.29v-.12a.61.61,0,0,0-.18-.5,1.19,1.19,0,0,0-.7-.15.94.94,0,0,0-.54.13A.85.85,0,0,0,386.51,40Zm1.73,1c-.17.05-.43.12-.79.19a2.34,2.34,0,0,0-.7.21.48.48,0,0,0-.25.42.55.55,0,0,0,.2.44.7.7,0,0,0,.51.19,1.12,1.12,0,0,0,.67-.22.75.75,0,0,0,.31-.4,2.41,2.41,0,0,0,.05-.59Z"/><path class="cls-2" d="M395.05,40l-1.28.22a.84.84,0,0,0-.29-.54.92.92,0,0,0-.59-.18,1,1,0,0,0-.77.31,1.52,1.52,0,0,0-.29,1,1.79,1.79,0,0,0,.29,1.15,1,1,0,0,0,.79.33.92.92,0,0,0,.6-.19,1.12,1.12,0,0,0,.33-.67l1.27.2a2.06,2.06,0,0,1-.76,1.23,2.43,2.43,0,0,1-1.5.42,2.31,2.31,0,0,1-1.71-.63,2.39,2.39,0,0,1,1.73-4.14,2.47,2.47,0,0,1,1.42.36A2,2,0,0,1,395.05,40Z"/><path class="cls-2" d="M396,38V36.9h1.29V38Zm0,5.19V38.64h1.29v4.57Z"/><path class="cls-2" d="M398.35,40.86a2.29,2.29,0,0,1,.32-1.17,2.14,2.14,0,0,1,.9-.86,2.89,2.89,0,0,1,1.3-.29,2.5,2.5,0,0,1,1.81.67,2.23,2.23,0,0,1,.71,1.7,2.31,2.31,0,0,1-.71,1.72,2.53,2.53,0,0,1-1.8.68,3,3,0,0,1-1.29-.29,2,2,0,0,1-.92-.83A2.52,2.52,0,0,1,398.35,40.86Zm1.32.06a1.44,1.44,0,0,0,.35,1,1.18,1.18,0,0,0,1.7,0,1.46,1.46,0,0,0,.34-1.05,1.44,1.44,0,0,0-.34-1,1.18,1.18,0,0,0-1.7,0A1.45,1.45,0,0,0,399.67,40.92Z"/><path class="cls-2" d="M404,41.9l1.3-.18a.84.84,0,0,0,.33.53,1.15,1.15,0,0,0,.71.19,1.31,1.31,0,0,0,.76-.18.37.37,0,0,0,.17-.32.32.32,0,0,0-.09-.23,1.27,1.27,0,0,0-.44-.16,7.55,7.55,0,0,1-2-.58,1.16,1.16,0,0,1-.58-1,1.25,1.25,0,0,1,.5-1,2.45,2.45,0,0,1,1.56-.4,2.92,2.92,0,0,1,1.49.3,1.61,1.61,0,0,1,.67.91l-1.22.21a.67.67,0,0,0-.3-.41,1.08,1.08,0,0,0-.62-.14,1.46,1.46,0,0,0-.73.13.27.27,0,0,0-.15.24.25.25,0,0,0,.13.22,4.86,4.86,0,0,0,1.21.34,3.78,3.78,0,0,1,1.44.54,1.08,1.08,0,0,1,.41.9,1.34,1.34,0,0,1-.57,1.08,2.59,2.59,0,0,1-1.66.45,2.91,2.91,0,0,1-1.58-.38A1.72,1.72,0,0,1,404,41.9Z"/><path class="cls-2" d="M418,43.21h-1.48l-.59-1.44h-2.7l-.55,1.44h-1.45l2.63-6.31h1.44Zm-2.51-2.5-.93-2.34-.91,2.34Z"/><path class="cls-2" d="M423,40l-1.28.22a.84.84,0,0,0-.29-.54.92.92,0,0,0-.59-.18,1,1,0,0,0-.77.31,1.52,1.52,0,0,0-.29,1,1.79,1.79,0,0,0,.29,1.15,1,1,0,0,0,.79.33.92.92,0,0,0,.6-.19,1.12,1.12,0,0,0,.33-.67l1.27.2a2.06,2.06,0,0,1-.76,1.23,2.43,2.43,0,0,1-1.5.42,2.31,2.31,0,0,1-1.71-.63,2.39,2.39,0,0,1,1.73-4.14,2.49,2.49,0,0,1,1.42.36A2,2,0,0,1,423,40Z"/><path class="cls-2" d="M427.18,43.21v-.69a1.74,1.74,0,0,1-.7.58,2.07,2.07,0,0,1-.92.21,2,2,0,0,1-.88-.2,1.31,1.31,0,0,1-.57-.57,2.49,2.49,0,0,1-.17-1V38.64h1.29v2.1a6.13,6.13,0,0,0,.07,1.18.68.68,0,0,0,.26.34.82.82,0,0,0,.48.13,1.13,1.13,0,0,0,.6-.17.91.91,0,0,0,.36-.42,4.92,4.92,0,0,0,.09-1.23V38.64h1.3v4.57Z"/><path class="cls-2" d="M430.69,40l-1.17-.19a1.73,1.73,0,0,1,.68-1,2.66,2.66,0,0,1,1.44-.31,3.22,3.22,0,0,1,1.28.19,1.3,1.3,0,0,1,.6.48,2.46,2.46,0,0,1,.17,1.09v1.41a4.65,4.65,0,0,0,.06.88,2.64,2.64,0,0,0,.23.62h-1.28l-.12-.36a.93.93,0,0,0-.05-.14,2.24,2.24,0,0,1-.71.45,2.15,2.15,0,0,1-.8.15,1.77,1.77,0,0,1-1.19-.38,1.29,1.29,0,0,1-.24-1.66,1.3,1.3,0,0,1,.56-.47,4.84,4.84,0,0,1,1-.28,7.11,7.11,0,0,0,1.25-.29v-.12a.61.61,0,0,0-.18-.5,1.17,1.17,0,0,0-.7-.15.94.94,0,0,0-.54.13A.91.91,0,0,0,430.69,40Zm1.73,1c-.16.05-.43.12-.78.19a2.44,2.44,0,0,0-.71.21.48.48,0,0,0-.25.42.59.59,0,0,0,.2.44.73.73,0,0,0,.52.19,1.11,1.11,0,0,0,.66-.22.75.75,0,0,0,.31-.4,2,2,0,0,0,.05-.59ZM431,38.08l.64-1.28h1.45l-1.27,1.28Z"/><path class="cls-2" d="M437.21,38.64v1h-.88v1.84a4.09,4.09,0,0,0,0,.65.28.28,0,0,0,.12.16.37.37,0,0,0,.21.06,1.68,1.68,0,0,0,.52-.12l.11.94a2.73,2.73,0,0,1-1,.18,1.81,1.81,0,0,1-.63-.11,1,1,0,0,1-.41-.28,1,1,0,0,1-.18-.48,5.19,5.19,0,0,1,0-.85v-2h-.6v-1h.6v-.91l1.3-.7v1.61Z"/><path class="cls-2" d="M438.11,38V36.9h1.29V38Zm0,5.19V38.64h1.29v4.57Z"/><path class="cls-2" d="M445,40l-1.28.22a.84.84,0,0,0-.29-.54.92.92,0,0,0-.59-.18,1,1,0,0,0-.77.31,1.52,1.52,0,0,0-.29,1,1.79,1.79,0,0,0,.29,1.15,1,1,0,0,0,.79.33.92.92,0,0,0,.6-.19,1.12,1.12,0,0,0,.33-.67l1.27.2a2.06,2.06,0,0,1-.76,1.23,2.43,2.43,0,0,1-1.5.42,2.31,2.31,0,0,1-1.71-.63,2.39,2.39,0,0,1,1.73-4.14,2.47,2.47,0,0,1,1.42.36A2,2,0,0,1,445,40Z"/><path class="cls-2" d="M445.67,40.86a2.29,2.29,0,0,1,.32-1.17,2.14,2.14,0,0,1,.9-.86,2.89,2.89,0,0,1,1.3-.29,2.5,2.5,0,0,1,1.81.67,2.23,2.23,0,0,1,.71,1.7,2.27,2.27,0,0,1-.71,1.72,2.53,2.53,0,0,1-1.8.68,3,3,0,0,1-1.29-.29,2,2,0,0,1-.92-.83A2.52,2.52,0,0,1,445.67,40.86Zm1.32.06a1.44,1.44,0,0,0,.35,1,1.18,1.18,0,0,0,1.7,0,1.46,1.46,0,0,0,.34-1.05,1.44,1.44,0,0,0-.34-1,1.18,1.18,0,0,0-1.7,0A1.45,1.45,0,0,0,447,40.92Z"/><path class="cls-2" d="M451.27,41.9l1.3-.18a.88.88,0,0,0,.33.53,1.15,1.15,0,0,0,.71.19,1.31,1.31,0,0,0,.76-.18.37.37,0,0,0,.17-.32.32.32,0,0,0-.09-.23,1.27,1.27,0,0,0-.44-.16,7.55,7.55,0,0,1-2-.58,1.16,1.16,0,0,1-.58-1,1.25,1.25,0,0,1,.5-1,2.49,2.49,0,0,1,1.56-.4,2.92,2.92,0,0,1,1.49.3,1.61,1.61,0,0,1,.67.91l-1.22.21a.67.67,0,0,0-.3-.41,1.08,1.08,0,0,0-.62-.14,1.48,1.48,0,0,0-.73.13.27.27,0,0,0-.15.24.25.25,0,0,0,.13.22,4.86,4.86,0,0,0,1.21.34,3.78,3.78,0,0,1,1.44.54,1.08,1.08,0,0,1,.41.9,1.36,1.36,0,0,1-.56,1.08,2.64,2.64,0,0,1-1.67.45,2.91,2.91,0,0,1-1.58-.38A1.72,1.72,0,0,1,451.27,41.9Z"/><path class="cls-6" d="M971.75,43.36v-.2l1-.39a18.48,18.48,0,0,0,5.19-3.5A10.3,10.3,0,0,0,980.29,36a9.6,9.6,0,0,0,1-4.25,10.85,10.85,0,0,0-2.95-7.49A10.68,10.68,0,0,0,963,24.25,10.71,10.71,0,0,0,960,31.59a7,7,0,0,0,.2,2c.33,1,1.42,1.5,3.26,1.5,1.65,0,2.68-.32,3.07-1a2.8,2.8,0,0,0,.37-1,10.31,10.31,0,0,0,.06-1.3v-.24l.16-.9a3.33,3.33,0,0,1,1-1.83,3,3,0,0,1,2.19-.93,4.44,4.44,0,0,1,2,.36,3.08,3.08,0,0,1,1,.76,4.43,4.43,0,0,1,.61,1.07,2.88,2.88,0,0,1,.27,1,4.86,4.86,0,0,1-1.47,3.35,16.13,16.13,0,0,1-3.56,2.81l-4.17,2.52a13.76,13.76,0,0,0-3.56,3.07A6,6,0,0,0,960,46.82a3.45,3.45,0,0,0,1,2.48,3.28,3.28,0,0,0,2.44,1.07H993.2l-13.09-7Z"/><path class="cls-7" d="M1007.3,35.69V36a15.7,15.7,0,0,1-.16,1.94,14.77,14.77,0,0,1-2,5.43,15.23,15.23,0,0,1-2.42,3,14.78,14.78,0,0,1-5.42,3.27l-.2.06a14.68,14.68,0,0,1-15.67-23.49l.23-.27c.27-.3.54-.58.83-.85a14.58,14.58,0,0,1,9-4c.35,0,.71,0,1.06,0l.76,0c.43,0,.86.06,1.28.12a14.65,14.65,0,0,1,5.42,1.89c.36.21.71.44,1,.68l.06,0,.41.32a11.21,11.21,0,0,1,1,.89l.09.08.29.28.37.39a14.65,14.65,0,0,1,2.07,2.87s0,0,0,0c.16.28.3.57.44.86a15.19,15.19,0,0,1,.72,1.88,14.24,14.24,0,0,1,.51,2.26q.09.66.12,1.35c0,.23,0,.48,0,.72"/><path class="cls-8" d="M1020,46.87l0,0h0Z"/><path class="cls-9" d="M1027.53,35.69a14.65,14.65,0,0,1-1.23,5.89,8.85,8.85,0,0,1-1.51,2.64h-3.26a.46.46,0,0,1-.43-.32l-1-3a.46.46,0,0,0-.87,0l-1,3a.45.45,0,0,1-.43.32h-3.2a.46.46,0,0,0-.27.83l2.59,1.89a.46.46,0,0,1,.16.51l-.79,2.5-.12,0-.81.16c-.41.07-.82.12-1.24.16s-.83,0-1.26,0a14.76,14.76,0,0,1-1.77-.1l-.29,0c-.38,0-.76-.12-1.14-.2l-.55-.14-.28-.07a14.55,14.55,0,0,1-4.53-2.2c-.13-.09-.27-.19-.4-.3a13.51,13.51,0,0,1-1.15-1V25.05l0-.05a14.62,14.62,0,0,1,10.07-4c.34,0,.67,0,1,0a13.81,13.81,0,0,1,1.59.2,14.4,14.4,0,0,1,5.1,1.94h0a15.77,15.77,0,0,1,2.17,1.63,14.66,14.66,0,0,1,4.82,10.88"/><path class="cls-6" d="M1031.87,13.39l-8.72,9.7,0,.05-.52,1.9-.15.76-.09,1.5-.1,1.52a8.05,8.05,0,0,1-.73,2.89l-.31.7a6.71,6.71,0,0,1-1.11,1.68l-1.08,1.21c-3,3.75-2.46,6.86-1.32,8.92h-3.17a.46.46,0,0,0-.27.83l2.59,1.89a.46.46,0,0,1,.16.51l-.79,2.5h0c-.31.08-.62.14-.93.19a10.25,10.25,0,0,1-1.24.16q-.61.06-1.26.06a14.76,14.76,0,0,1-1.77-.11l-.29,0c-.38,0-.76-.12-1.14-.2l-.55-.14-.28-.07a14.75,14.75,0,0,1-4.53-2.19l-.4-.31a13.51,13.51,0,0,1-1.15-1h0a14.66,14.66,0,0,1-5.41,3.27l-.21.06V44.71l-4.45-2a.72.72,0,0,0-1,.66v.95H992c.2,0,.41,0,.63,0a2.93,2.93,0,0,1,1.84.64l.51.51a2.86,2.86,0,0,1,.54,1.09H991.6l-1.77-1.78V39.79h5.56a1.83,1.83,0,0,0,.33,0h0l-.88-1.64a2.16,2.16,0,0,0-1.9-1.15h-1.22l-1.84,2-2.48-2.48,2.3-.91h6.38a.64.64,0,0,1,.45.19l2,2a3.53,3.53,0,0,0,.35-1.52V32.85a1.31,1.31,0,0,0-.62.39l-.79.87a1.34,1.34,0,0,1-1.9.09l-.74-.68,7.87-8.47a1.58,1.58,0,0,1,.1,2.29l-.19.35h0l.08.07,4.18,3.84a6.12,6.12,0,0,1,1.81,3.08l1.23-.9V32.42l.64-.71h-.73s-.27.05-.26-.35l-.13-1s-.48.1-.36-.22.28-.62.38-.81a.51.51,0,0,0,0-.45,1.53,1.53,0,0,1,1.07-1.6l-.09-.67.66-.15a.63.63,0,0,1,.42,0c.34.16.52,0,1,.12s.56.32,1,.43.38.91.38.91,0,.23.08.71a4,4,0,0,1-.32,1.33.78.78,0,0,1-.28.54.35.35,0,0,1-.29.06.69.69,0,0,1,.17.13,4.79,4.79,0,0,1,.35,1,.17.17,0,0,1,0,.16,1.34,1.34,0,0,1,.31.34l.32-.27a1.06,1.06,0,0,1,.73-.45l1.54-.21a.74.74,0,0,1,.77.44l.08.2.8-.59.68-.72a4.81,4.81,0,0,0,1.14-1.95l-.85.22.34-1.62,1.46-.78.39-1.11a5.07,5.07,0,0,1-.34-.86,2.84,2.84,0,0,0,0-.38l-.54-.39.06-.49.35-.46s.3-.48.34-.56a4.37,4.37,0,0,1,.36-.45l1.39.07,7.78-8.56,1-.23a.2.2,0,0,1,.2.33"/><path class="cls-6" d="M1020,46.87l0,0h0Z"/><path class="cls-10" d="M1022.55,50.28l-2.5-1.8a15,15,0,0,0,2.28-1.59l.93,2.87a.46.46,0,0,1-.71.52"/><path class="cls-6" d="M978.32,24.29a10,10,0,0,0-2.56-2.05V41a27.53,27.53,0,0,0,2.16-1.76A10.42,10.42,0,0,0,980.29,36a9.6,9.6,0,0,0,1-4.25,10.89,10.89,0,0,0-2.95-7.5"/><path class="cls-6" d="M993.38,21l-.56.6a0,0,0,0,1,0,0l-.06.07-.42.44-.39.43-.88.94-.07.07-.16.18a.36.36,0,0,0-.05.43l1.43,2.54a.37.37,0,0,1-.41.54L989,26.63a.38.38,0,0,0-.4.18l-1.48,2.5a.37.37,0,0,1-.68-.08l-.85-2.78a.38.38,0,0,0-.35-.26l-1.91,0h-1.85l.23-.27.44-.47,1.89-2a.36.36,0,0,0,0-.43l-1.43-2.53a.37.37,0,0,1,.41-.55l2.83.65a.37.37,0,0,0,.41-.17l1.48-2.51a.37.37,0,0,1,.67.08l.85,2.78a.4.4,0,0,0,.36.27l2.7,0h.28l.76,0"/><path class="cls-1" d="M1024.79,44.22a14.63,14.63,0,0,1-6.42,5.07,13.4,13.4,0,0,1-2.09.67l.79-2.5a.46.46,0,0,0-.16-.51l-2.59-1.89a.46.46,0,0,1,.27-.83h3.2a.45.45,0,0,0,.43-.32l1-3a.46.46,0,0,1,.87,0l1,3a.46.46,0,0,0,.43.32h3.26"/><path class="cls-7" d="M961.07,58.45h.48a.55.55,0,0,1,.25,0c.08,0,.13.2.13.43s0,.36-.12.41a.5.5,0,0,1-.26.06h-1c-.25,0-.41-.06-.46-.17a.92.92,0,0,1-.07-.41V53.39a.83.83,0,0,1,.06-.37.27.27,0,0,1,.17-.16,1.23,1.23,0,0,1,.31,0h1a.55.55,0,0,1,.25,0c.08.06.13.2.13.43s0,.36-.12.41a.5.5,0,0,1-.26.06h-.48Z"/><path class="cls-7" d="M1026.75,53.75h-.49a.39.39,0,0,1-.24,0c-.09-.05-.13-.19-.13-.43s0-.36.11-.4a.54.54,0,0,1,.27-.06h1c.25,0,.41,0,.47.17a1,1,0,0,1,.06.4v5.43a1.11,1.11,0,0,1,0,.38.34.34,0,0,1-.18.15.9.9,0,0,1-.31,0h-1a.48.48,0,0,1-.24-.05c-.09,0-.13-.2-.13-.43s0-.36.11-.41a.54.54,0,0,1,.27-.06h.48Z"/><path class="cls-7" d="M994.38,56.58h-1.45c-.23,0-.36-.07-.41-.2a1.14,1.14,0,0,1,0-.28.72.72,0,0,1,0-.28.2.2,0,0,1,.11-.14.62.62,0,0,1,.29-.06h1.45c.23,0,.36.07.4.2a.79.79,0,0,1,0,.28,1,1,0,0,1,0,.28.25.25,0,0,1-.11.15.78.78,0,0,1-.3,0"/><path class="cls-7" d="M1003.64,57.3a.73.73,0,0,1,.35.06.28.28,0,0,1,.15.17,1.35,1.35,0,0,1,0,.31.9.9,0,0,1,0,.31.24.24,0,0,1-.13.16.76.76,0,0,1-.37.07h-2.38a.51.51,0,0,1-.38-.16.53.53,0,0,1-.16-.39.94.94,0,0,1,.23-.6,2.32,2.32,0,0,1,.55-.48l.65-.39a2.62,2.62,0,0,0,.55-.43.74.74,0,0,0,.22-.52.37.37,0,0,0,0-.15,1.31,1.31,0,0,0-.09-.17.74.74,0,0,0-.16-.12.87.87,0,0,0-.31,0,.49.49,0,0,0-.34.14.6.6,0,0,0-.16.29l0,.14v0a1,1,0,0,1,0,.2.47.47,0,0,1-.06.15c-.06.1-.22.15-.47.15s-.46-.08-.51-.23a1.19,1.19,0,0,1,0-.31,1.65,1.65,0,0,1,.46-1.14,1.64,1.64,0,0,1,2.37,0,1.68,1.68,0,0,1,.46,1.16,1.52,1.52,0,0,1-.15.66,2,2,0,0,1-.37.5,3.3,3.3,0,0,1-.8.54l-.15.06v0Z"/><path class="cls-7" d="M1007.92,54.42a1.47,1.47,0,0,1,.5-.41,1.58,1.58,0,0,1,.74-.17,1.54,1.54,0,0,1,.73.17,1.41,1.41,0,0,1,.49.4,2.1,2.1,0,0,1,.29.58,3.66,3.66,0,0,1,.19,1.16,2.88,2.88,0,0,1-.48,1.75,1.41,1.41,0,0,1-.49.4,1.67,1.67,0,0,1-.73.15,1.57,1.57,0,0,1-.73-.16,1.43,1.43,0,0,1-.5-.39,1.91,1.91,0,0,1-.29-.57,3.67,3.67,0,0,1-.18-1.19,3.54,3.54,0,0,1,.14-1,2.71,2.71,0,0,1,.32-.68m1.23,2.95c.42,0,.63-.4.63-1.19v0c0-.81-.21-1.22-.62-1.22s-.62.41-.62,1.23.2,1.22.61,1.22"/><path class="cls-7" d="M1017.07,54.27a1.29,1.29,0,0,1,.43,1,.81.81,0,0,1-.48.77v0a.56.56,0,0,1,.18.13,1.26,1.26,0,0,1,.2.2.93.93,0,0,1,.2.58,1.39,1.39,0,0,1-.49,1.08,1.79,1.79,0,0,1-1.22.42,1.75,1.75,0,0,1-1.22-.43,1.46,1.46,0,0,1-.32-.43,1,1,0,0,1-.07-.16v-.06a.93.93,0,0,1-.07-.33c0-.23.2-.35.6-.35a.57.57,0,0,1,.32.06.62.62,0,0,1,.18.32.51.51,0,0,0,.34.29.93.93,0,0,0,.25,0,.76.76,0,0,0,.48-.13.4.4,0,0,0,.15-.3.36.36,0,0,0-.15-.29.55.55,0,0,0-.35-.12,1.52,1.52,0,0,1-.28,0,.29.29,0,0,1-.16-.06c-.11,0-.16-.21-.16-.47s.07-.45.22-.5a1.27,1.27,0,0,1,.32,0c.31,0,.46-.08.46-.24a.35.35,0,0,0-.12-.24.45.45,0,0,0-.34-.12.66.66,0,0,0-.34.08.28.28,0,0,0-.16.14l0,.08a.43.43,0,0,1-.4.3.68.68,0,0,1-.33-.11c-.2-.12-.31-.25-.31-.41a1.56,1.56,0,0,1,.14-.41,1.67,1.67,0,0,1,.14-.19,1.42,1.42,0,0,1,.25-.24,1.36,1.36,0,0,1,.4-.19,1.76,1.76,0,0,1,.58-.09,1.59,1.59,0,0,1,1.18.43"/><path class="cls-7" d="M1021.41,54.42a1.34,1.34,0,0,1,.49-.41,1.58,1.58,0,0,1,.74-.17,1.51,1.51,0,0,1,.73.17,1.45,1.45,0,0,1,.5.4,2.42,2.42,0,0,1,.29.58,3.66,3.66,0,0,1,.18,1.16,2.88,2.88,0,0,1-.48,1.75,1.32,1.32,0,0,1-.49.4,1.8,1.8,0,0,1-1.46,0,1.3,1.3,0,0,1-.49-.39,2.19,2.19,0,0,1-.3-.57,3.67,3.67,0,0,1-.18-1.19,3.22,3.22,0,0,1,.15-1,2.4,2.4,0,0,1,.32-.68m1.22,2.95c.42,0,.63-.4.63-1.19v0c0-.81-.21-1.22-.62-1.22s-.62.41-.62,1.23.21,1.22.61,1.22"/><path class="cls-7" d="M966.36,57.26a.76.76,0,0,1,.35.06.31.31,0,0,1,.15.17,1.35,1.35,0,0,1,0,.31.9.9,0,0,1,0,.31.24.24,0,0,1-.13.16.76.76,0,0,1-.37.07H964a.49.49,0,0,1-.37-.16.53.53,0,0,1-.16-.39.87.87,0,0,1,.23-.6,2.1,2.1,0,0,1,.55-.47c.21-.14.43-.27.64-.39a2.42,2.42,0,0,0,.55-.44.74.74,0,0,0,.23-.51.47.47,0,0,0,0-.16.61.61,0,0,0-.09-.16.55.55,0,0,0-.16-.12.65.65,0,0,0-.3,0,.44.44,0,0,0-.34.14.45.45,0,0,0-.16.28l0,.14v0a1.09,1.09,0,0,1,0,.2.37.37,0,0,1,0,.15c-.06.1-.22.14-.48.14s-.45-.07-.5-.23a1.09,1.09,0,0,1,0-.31,1.66,1.66,0,0,1,.45-1.13,1.53,1.53,0,0,1,1.18-.5,1.51,1.51,0,0,1,1.19.51,1.7,1.7,0,0,1,.46,1.15,1.37,1.37,0,0,1-.16.66,1.61,1.61,0,0,1-.36.5,2.8,2.8,0,0,1-.8.54l-.15.06v0Z"/><path class="cls-7" d="M970.07,54.39a1.47,1.47,0,0,1,.5-.41,1.58,1.58,0,0,1,.74-.17A1.54,1.54,0,0,1,972,54a1.41,1.41,0,0,1,.49.4,2.18,2.18,0,0,1,.29.57,3.71,3.71,0,0,1,.18,1.16,2.9,2.9,0,0,1-.47,1.74,1.22,1.22,0,0,1-.49.4,1.54,1.54,0,0,1-.73.16,1.57,1.57,0,0,1-.73-.16,1.45,1.45,0,0,1-.5-.4,2,2,0,0,1-.29-.56,3.61,3.61,0,0,1-.18-1.18,3.17,3.17,0,0,1,.15-1,2.72,2.72,0,0,1,.31-.68m1.23,2.94c.42,0,.63-.39.63-1.19v0c0-.82-.21-1.22-.62-1.22s-.62.4-.62,1.22.2,1.22.61,1.22"/><path class="cls-7" d="M978.86,57.26a.78.78,0,0,1,.36.06.26.26,0,0,1,.14.17,1.3,1.3,0,0,1,0,.31,1.23,1.23,0,0,1,0,.31.27.27,0,0,1-.13.16.81.81,0,0,1-.38.07h-2.37a.51.51,0,0,1-.38-.16.57.57,0,0,1-.16-.39.92.92,0,0,1,.23-.6,2.28,2.28,0,0,1,.55-.47c.21-.14.43-.27.64-.39a2.22,2.22,0,0,0,.55-.44.74.74,0,0,0,.23-.51.41.41,0,0,0,0-.16.62.62,0,0,0-.1-.16.44.44,0,0,0-.16-.12.62.62,0,0,0-.3,0,.45.45,0,0,0-.34.14.51.51,0,0,0-.16.28l0,.14v0c0,.09,0,.15,0,.2a.77.77,0,0,1-.06.15c-.06.1-.22.14-.47.14s-.45-.07-.51-.23a1.09,1.09,0,0,1,0-.31,1.62,1.62,0,0,1,.46-1.13,1.64,1.64,0,0,1,2.37,0,1.69,1.69,0,0,1,.45,1.15,1.58,1.58,0,0,1-.52,1.16,2.55,2.55,0,0,1-.8.54l-.15.06v0Z"/><path class="cls-7" d="M985.2,57.26a.76.76,0,0,1,.35.06.28.28,0,0,1,.15.17,1.35,1.35,0,0,1,0,.31.9.9,0,0,1,0,.31.24.24,0,0,1-.13.16.76.76,0,0,1-.37.07h-2.38a.49.49,0,0,1-.37-.16.53.53,0,0,1-.16-.39.92.92,0,0,1,.23-.6,2.1,2.1,0,0,1,.55-.47c.21-.14.43-.27.64-.39a2.42,2.42,0,0,0,.55-.44.74.74,0,0,0,.23-.51.47.47,0,0,0-.05-.16.61.61,0,0,0-.09-.16.55.55,0,0,0-.16-.12.62.62,0,0,0-.3,0,.44.44,0,0,0-.34.14.45.45,0,0,0-.16.28l0,.14v.24a.77.77,0,0,1-.06.15c-.06.1-.22.14-.48.14s-.45-.07-.5-.23a1.09,1.09,0,0,1,0-.31,1.66,1.66,0,0,1,.45-1.13,1.54,1.54,0,0,1,1.19-.5,1.51,1.51,0,0,1,1.18.51,1.65,1.65,0,0,1,.46,1.15,1.49,1.49,0,0,1-.15.66,1.81,1.81,0,0,1-.37.5,2.8,2.8,0,0,1-.8.54l-.15.06v0Z"/></g></g></svg>